<svg width="29" height="22" viewBox="0 0 29 22" fill="none" xmlns="http://www.w3.org/2000/svg">
<path d="M14.4328 13.8931C18.9557 13.8931 22.8177 14.6102 22.8177 17.4796C22.8177 20.3477 18.9805 21.0909 14.4328 21.0909C9.90989 21.0909 6.04794 20.3739 6.04794 17.5057C6.04794 14.6363 9.8851 13.8931 14.4328 13.8931ZM21.6644 12.1653C23.3936 12.1333 25.2525 12.3707 25.9395 12.5393C27.3948 12.8254 28.352 13.4095 28.7486 14.2583C29.0838 14.9552 29.0838 15.7636 28.7486 16.4593C28.1419 17.7759 26.1862 18.1985 25.426 18.3077C25.2691 18.3315 25.1428 18.1949 25.1593 18.0371C25.5476 14.3889 22.4588 12.6592 21.6597 12.2615C21.6255 12.2437 21.6184 12.2164 21.6219 12.1998C21.6243 12.1879 21.6384 12.1689 21.6644 12.1653ZM7.33647 12.1658C7.36244 12.1694 7.37542 12.1884 7.37778 12.1991C7.38132 12.2169 7.37424 12.243 7.34119 12.262C6.54095 12.6597 3.45209 14.3894 3.84041 18.0363C3.85694 18.1954 3.73183 18.3308 3.57484 18.3082C2.81473 18.199 0.858966 17.7763 0.25229 16.4598C-0.0840966 15.7629 -0.0840966 14.9556 0.25229 14.2588C0.648872 13.41 1.60492 12.8259 3.06023 12.5386C3.74835 12.3712 5.60615 12.1338 7.33647 12.1658ZM14.4328 0C17.5122 0 19.9814 2.48117 19.9814 5.57967C19.9814 8.67698 17.5122 11.1605 14.4328 11.1605C11.3534 11.1605 8.8842 8.67698 8.8842 5.57967C8.8842 2.48117 11.3534 0 14.4328 0ZM21.9654 0.930499C24.9398 0.930499 27.2756 3.74526 26.4801 6.88056C25.943 8.99134 23.9991 10.3934 21.8332 10.3364C21.616 10.3305 21.4024 10.3103 21.1958 10.2747C21.0459 10.2485 20.9704 10.0788 21.0554 9.95294C21.8816 8.73016 22.3525 7.25927 22.3525 5.68034C22.3525 4.03256 21.8379 2.49637 20.9444 1.23679C20.9161 1.19761 20.8949 1.13707 20.9232 1.09195C20.9468 1.05515 20.9905 1.03616 21.0318 1.02666C21.3327 0.964927 21.642 0.930499 21.9654 0.930499ZM7.03372 0.93038C7.35713 0.93038 7.66637 0.964808 7.96853 1.02654C8.00866 1.03604 8.05351 1.05622 8.07711 1.09183C8.10426 1.13695 8.08419 1.19749 8.05587 1.23667C7.16238 2.49625 6.64776 4.03244 6.64776 5.68022C6.64776 7.25915 7.11871 8.73004 7.94492 9.95282C8.0299 10.0787 7.95436 10.2484 7.80446 10.2745C7.59673 10.3113 7.38427 10.3303 7.1671 10.3363C5.00124 10.3933 3.05728 8.99122 2.52024 6.88044C1.72354 3.74514 4.05936 0.93038 7.03372 0.93038Z" fill="#31BEB6"/>
</svg>
