<svg width="29" height="22" viewBox="0 0 29 22" fill="none" xmlns="http://www.w3.org/2000/svg">
<path d="M14.3624 0.25C17.8743 0.25 20.3263 2.6701 20.3263 6.13832V16.1117C20.3263 19.5799 17.8743 22 14.3624 22H5.96391C2.45197 22 0 19.5799 0 16.1117V6.13832C0 2.6701 2.45197 0.25 5.96391 0.25H14.3624ZM26.0391 3.69953C26.6756 3.37567 27.4224 3.40953 28.0299 3.79227C28.6375 4.17354 29 4.83597 29 5.56024V16.6906C29 17.4164 28.6375 18.0773 28.0299 18.4586C27.6979 18.6662 27.3267 18.7722 26.9526 18.7722C26.6408 18.7722 26.3291 18.6986 26.0376 18.5499L23.8902 17.4664C23.0955 17.0631 22.6025 16.2534 22.6025 15.354V6.89542C22.6025 5.9945 23.0955 5.18486 23.8902 4.78445L26.0391 3.69953Z" fill="#EAFFF7"/>
</svg>
