<svg width="28" height="28" viewBox="0 0 28 28" fill="none" xmlns="http://www.w3.org/2000/svg">
<path d="M8.28812 16.0578C10.2622 16.0578 11.8442 17.6552 11.8442 19.6433V24.4159C11.8442 26.39 10.2622 28 8.28812 28H3.55605C1.59602 28 0 26.39 0 24.4159V19.6433C0 17.6552 1.59602 16.0578 3.55605 16.0578H8.28812ZM24.4445 16.0578C26.4045 16.0578 28.0006 17.6552 28.0006 19.6433V24.4159C28.0006 26.39 26.4045 28 24.4445 28H19.7124C17.7384 28 16.1564 26.39 16.1564 24.4159V19.6433C16.1564 17.6552 17.7384 16.0578 19.7124 16.0578H24.4445ZM8.28812 0C10.2622 0 11.8442 1.61002 11.8442 3.58545V8.35812C11.8442 10.3462 10.2622 11.9422 8.28812 11.9422H3.55605C1.59602 11.9422 0 10.3462 0 8.35812V3.58545C0 1.61002 1.59602 0 3.55605 0H8.28812ZM24.4445 0C26.4045 0 28.0006 1.61002 28.0006 3.58545V8.35812C28.0006 10.3462 26.4045 11.9422 24.4445 11.9422H19.7124C17.7384 11.9422 16.1564 10.3462 16.1564 8.35812V3.58545C16.1564 1.61002 17.7384 0 19.7124 0H24.4445Z" fill="#9131BE"/>
</svg>
