<svg width="16" height="16" viewBox="0 0 16 16" fill="none" xmlns="http://www.w3.org/2000/svg">
<mask id="path-1-inside-1_146_858" fill="white">
<path d="M8.32491 0.663086C6.3103 0.663086 6.05879 0.672356 5.26778 0.70758C4.478 0.744659 3.94036 0.868872 3.46761 1.05241C2.98002 1.24151 2.56598 1.4955 2.15379 1.90769C1.7416 2.31988 1.48699 2.73331 1.29851 3.22151C1.11497 3.69427 0.990135 4.23191 0.953674 5.02168C0.916595 5.81269 0.90918 6.06421 0.90918 8.07882C0.90918 10.0934 0.918449 10.3449 0.953674 11.136C0.990753 11.9251 1.11497 12.4634 1.29851 12.9361C1.4847 13.431 1.77657 13.8794 2.15379 14.2499C2.52413 14.6274 2.97254 14.9193 3.46761 15.1052C3.94098 15.2881 4.47862 15.4136 5.26778 15.4501C6.05879 15.4871 6.3103 15.4945 8.32491 15.4945C10.3395 15.4945 10.591 15.4853 11.382 15.4501C12.1712 15.413 12.7095 15.2881 13.1822 15.1052C13.677 14.9188 14.1253 14.627 14.496 14.2499C14.8736 13.8797 15.1656 13.4313 15.3513 12.9361C15.5342 12.4634 15.6597 11.9251 15.6961 11.136C15.7332 10.3449 15.7406 10.0934 15.7406 8.07882C15.7406 6.06421 15.7314 5.81269 15.6961 5.02168C15.6591 4.23252 15.5342 3.69365 15.3513 3.22151C15.165 2.72665 14.8732 2.27831 14.496 1.90769C14.126 1.52989 13.6775 1.23792 13.1822 1.05241C12.7095 0.868872 12.1712 0.744041 11.382 0.70758C10.591 0.670502 10.3395 0.663086 8.32491 0.663086ZM8.32491 1.99792C10.3043 1.99792 10.5404 2.00781 11.3221 2.04179C12.0451 2.07578 12.4376 2.19567 12.6983 2.29825C13.0456 2.43236 13.2916 2.59303 13.5524 2.85196C13.8113 3.11151 13.972 3.35809 14.1061 3.70539C14.2074 3.96618 14.3286 4.35859 14.3613 5.08163C14.3965 5.86399 14.4046 6.09882 14.4046 8.07882C14.4046 10.0588 14.3953 10.2943 14.3588 11.076C14.3211 11.799 14.2006 12.1915 14.0987 12.4522C13.978 12.7741 13.7884 13.0656 13.5431 13.3063C13.3034 13.5518 13.0121 13.7409 12.6903 13.86C12.4308 13.9613 12.0322 14.0825 11.3091 14.1152C10.5218 14.1504 10.2901 14.1585 8.30637 14.1585C6.32204 14.1585 6.0903 14.1492 5.30362 14.1127C4.57997 14.0751 4.18137 13.9545 3.92182 13.8526C3.59979 13.7334 3.30859 13.5436 3.06963 13.297C2.82156 13.0589 2.63131 12.7672 2.51345 12.4442C2.41148 12.1847 2.2916 11.7861 2.2539 11.063C2.22609 10.2844 2.2162 10.044 2.2162 8.06955C2.2162 6.09449 2.22609 5.85348 2.2539 5.06556C2.2916 4.34252 2.41148 3.94455 2.51345 3.685C2.64322 3.33275 2.80946 3.09174 3.06963 2.83157C3.32856 2.57264 3.57019 2.40578 3.92182 2.27663C4.18137 2.17404 4.57131 2.05354 5.29435 2.01646C6.08227 1.98865 6.31401 1.97938 8.2971 1.97938L8.32491 1.99792ZM8.32491 4.27084C7.82484 4.27084 7.32967 4.36934 6.86766 4.5607C6.40565 4.75207 5.98587 5.03257 5.63226 5.38617C5.27866 5.73977 4.99817 6.15956 4.8068 6.62157C4.61543 7.08357 4.51693 7.57875 4.51693 8.07882C4.51693 8.57889 4.61543 9.07406 4.8068 9.53607C4.99817 9.99807 5.27866 10.4179 5.63226 10.7715C5.98587 11.1251 6.40565 11.4056 6.86766 11.5969C7.32967 11.7883 7.82484 11.8868 8.32491 11.8868C9.33485 11.8868 10.3034 11.4856 11.0176 10.7715C11.7317 10.0573 12.1329 9.08875 12.1329 8.07882C12.1329 7.06888 11.7317 6.1003 11.0176 5.38617C10.3034 4.67204 9.33485 4.27084 8.32491 4.27084ZM8.32491 10.5507C6.95918 10.5507 5.853 9.44455 5.853 8.07882C5.853 6.71309 6.95918 5.60691 8.32491 5.60691C9.69064 5.60691 10.7968 6.71309 10.7968 8.07882C10.7968 9.44455 9.69064 10.5507 8.32491 10.5507ZM13.1736 4.12067C13.165 4.35094 13.0675 4.56893 12.9015 4.7288C12.7356 4.88868 12.5141 4.97801 12.2837 4.97801C12.0532 4.97801 11.8318 4.88868 11.6658 4.7288C11.4999 4.56893 11.4024 4.35094 11.3938 4.12067C11.3938 3.88466 11.4875 3.65831 11.6544 3.49143C11.8213 3.32454 12.0477 3.23078 12.2837 3.23078C12.5197 3.23078 12.746 3.32454 12.9129 3.49143C13.0798 3.65831 13.1736 3.88466 13.1736 4.12067Z"/>
</mask>
<path d="M8.32491 0.663086C6.3103 0.663086 6.05879 0.672356 5.26778 0.70758C4.478 0.744659 3.94036 0.868872 3.46761 1.05241C2.98002 1.24151 2.56598 1.4955 2.15379 1.90769C1.7416 2.31988 1.48699 2.73331 1.29851 3.22151C1.11497 3.69427 0.990135 4.23191 0.953674 5.02168C0.916595 5.81269 0.90918 6.06421 0.90918 8.07882C0.90918 10.0934 0.918449 10.3449 0.953674 11.136C0.990753 11.9251 1.11497 12.4634 1.29851 12.9361C1.4847 13.431 1.77657 13.8794 2.15379 14.2499C2.52413 14.6274 2.97254 14.9193 3.46761 15.1052C3.94098 15.2881 4.47862 15.4136 5.26778 15.4501C6.05879 15.4871 6.3103 15.4945 8.32491 15.4945C10.3395 15.4945 10.591 15.4853 11.382 15.4501C12.1712 15.413 12.7095 15.2881 13.1822 15.1052C13.677 14.9188 14.1253 14.627 14.496 14.2499C14.8736 13.8797 15.1656 13.4313 15.3513 12.9361C15.5342 12.4634 15.6597 11.9251 15.6961 11.136C15.7332 10.3449 15.7406 10.0934 15.7406 8.07882C15.7406 6.06421 15.7314 5.81269 15.6961 5.02168C15.6591 4.23252 15.5342 3.69365 15.3513 3.22151C15.165 2.72665 14.8732 2.27831 14.496 1.90769C14.126 1.52989 13.6775 1.23792 13.1822 1.05241C12.7095 0.868872 12.1712 0.744041 11.382 0.70758C10.591 0.670502 10.3395 0.663086 8.32491 0.663086ZM8.32491 1.99792C10.3043 1.99792 10.5404 2.00781 11.3221 2.04179C12.0451 2.07578 12.4376 2.19567 12.6983 2.29825C13.0456 2.43236 13.2916 2.59303 13.5524 2.85196C13.8113 3.11151 13.972 3.35809 14.1061 3.70539C14.2074 3.96618 14.3286 4.35859 14.3613 5.08163C14.3965 5.86399 14.4046 6.09882 14.4046 8.07882C14.4046 10.0588 14.3953 10.2943 14.3588 11.076C14.3211 11.799 14.2006 12.1915 14.0987 12.4522C13.978 12.7741 13.7884 13.0656 13.5431 13.3063C13.3034 13.5518 13.0121 13.7409 12.6903 13.86C12.4308 13.9613 12.0322 14.0825 11.3091 14.1152C10.5218 14.1504 10.2901 14.1585 8.30637 14.1585C6.32204 14.1585 6.0903 14.1492 5.30362 14.1127C4.57997 14.0751 4.18137 13.9545 3.92182 13.8526C3.59979 13.7334 3.30859 13.5436 3.06963 13.297C2.82156 13.0589 2.63131 12.7672 2.51345 12.4442C2.41148 12.1847 2.2916 11.7861 2.2539 11.063C2.22609 10.2844 2.2162 10.044 2.2162 8.06955C2.2162 6.09449 2.22609 5.85348 2.2539 5.06556C2.2916 4.34252 2.41148 3.94455 2.51345 3.685C2.64322 3.33275 2.80946 3.09174 3.06963 2.83157C3.32856 2.57264 3.57019 2.40578 3.92182 2.27663C4.18137 2.17404 4.57131 2.05354 5.29435 2.01646C6.08227 1.98865 6.31401 1.97938 8.2971 1.97938L8.32491 1.99792ZM8.32491 4.27084C7.82484 4.27084 7.32967 4.36934 6.86766 4.5607C6.40565 4.75207 5.98587 5.03257 5.63226 5.38617C5.27866 5.73977 4.99817 6.15956 4.8068 6.62157C4.61543 7.08357 4.51693 7.57875 4.51693 8.07882C4.51693 8.57889 4.61543 9.07406 4.8068 9.53607C4.99817 9.99807 5.27866 10.4179 5.63226 10.7715C5.98587 11.1251 6.40565 11.4056 6.86766 11.5969C7.32967 11.7883 7.82484 11.8868 8.32491 11.8868C9.33485 11.8868 10.3034 11.4856 11.0176 10.7715C11.7317 10.0573 12.1329 9.08875 12.1329 8.07882C12.1329 7.06888 11.7317 6.1003 11.0176 5.38617C10.3034 4.67204 9.33485 4.27084 8.32491 4.27084ZM8.32491 10.5507C6.95918 10.5507 5.853 9.44455 5.853 8.07882C5.853 6.71309 6.95918 5.60691 8.32491 5.60691C9.69064 5.60691 10.7968 6.71309 10.7968 8.07882C10.7968 9.44455 9.69064 10.5507 8.32491 10.5507ZM13.1736 4.12067C13.165 4.35094 13.0675 4.56893 12.9015 4.7288C12.7356 4.88868 12.5141 4.97801 12.2837 4.97801C12.0532 4.97801 11.8318 4.88868 11.6658 4.7288C11.4999 4.56893 11.4024 4.35094 11.3938 4.12067C11.3938 3.88466 11.4875 3.65831 11.6544 3.49143C11.8213 3.32454 12.0477 3.23078 12.2837 3.23078C12.5197 3.23078 12.746 3.32454 12.9129 3.49143C13.0798 3.65831 13.1736 3.88466 13.1736 4.12067Z" fill="#CDCDCD"/>
<path d="M5.26778 0.70758L3.84419 -31.2607L3.80563 -31.259L3.76708 -31.2572L5.26778 0.70758ZM3.46761 1.05241L15.0385 30.8872L15.0489 30.8831L3.46761 1.05241ZM1.29851 3.22151L31.1292 14.8029L31.1401 14.7748L31.1509 14.7468L1.29851 3.22151ZM0.953674 5.02168L32.9186 6.52004L32.9191 6.50873L32.9196 6.49742L0.953674 5.02168ZM0.953674 11.136L-31.0146 12.5595L-31.0129 12.5987L-31.0111 12.6378L0.953674 11.136ZM1.29851 12.9361L31.2491 1.66831L31.19 1.51123L31.1292 1.35478L1.29851 12.9361ZM2.15379 14.2499L24.9962 -8.16045L24.7894 -8.3712L24.5788 -8.5781L2.15379 14.2499ZM3.46761 15.1052L15.0019 -14.7437L14.8594 -14.7988L14.7163 -14.8525L3.46761 15.1052ZM5.26778 15.4501L6.76613 -16.5148L6.7554 -16.5154L6.74467 -16.5158L5.26778 15.4501ZM11.382 15.4501L12.8056 47.4184L12.8448 47.4166L12.8839 47.4148L11.382 15.4501ZM13.1822 15.1052L1.89984 -14.8399L1.76709 -14.7898L1.63478 -14.7387L13.1822 15.1052ZM14.496 14.2499L-7.90745 -8.59921L-8.11616 -8.39457L-8.3211 -8.18616L14.496 14.2499ZM15.3513 12.9361L-14.4926 1.38869L-14.552 1.5423L-14.6099 1.69652L15.3513 12.9361ZM15.6961 11.136L-16.2688 9.6376L-16.2693 9.64833L-16.2698 9.65906L15.6961 11.136ZM15.6961 5.02168L47.6645 3.59809L47.6627 3.55895L47.6609 3.51981L15.6961 5.02168ZM15.3513 3.22151L-14.5971 14.4949L-14.543 14.6388L-14.4875 14.7821L15.3513 3.22151ZM14.496 1.90769L-8.36416 24.2999L-8.15075 24.5178L-7.93324 24.7315L14.496 1.90769ZM13.1822 1.05241L1.60087 30.8831L1.77872 30.9522L1.95739 31.0191L13.1822 1.05241ZM11.382 0.70758L9.88369 32.6725L9.89442 32.673L9.90516 32.6735L11.382 0.70758ZM8.32491 1.99792L-9.42561 28.6234L-1.36399 33.9979H8.32491V1.99792ZM11.3221 2.04179L12.8247 -29.9229L12.7684 -29.9256L12.7121 -29.928L11.3221 2.04179ZM12.6983 2.29825L0.984362 32.0772L1.078 32.114L1.17186 32.1502L12.6983 2.29825ZM13.5524 2.85196L36.2068 -19.7485L36.153 -19.8024L36.0989 -19.856L13.5524 2.85196ZM14.1061 3.70539L-15.7459 15.2319L-15.7333 15.2644L-15.7207 15.2968L14.1061 3.70539ZM14.3613 5.08163L46.3289 3.64233L46.3285 3.63354L14.3613 5.08163ZM14.3588 11.076L46.3154 12.7421L46.32 12.6545L46.3241 12.5669L14.3588 11.076ZM14.0987 12.4522L-15.7042 0.799452L-15.7862 1.00919L-15.8653 1.22005L14.0987 12.4522ZM13.5431 13.3063L-8.87017 -9.53325L-9.11488 -9.29311L-9.35439 -9.04778L13.5431 13.3063ZM12.6903 13.86L1.58768 -16.1522L1.31839 -16.0526L1.05093 -15.9481L12.6903 13.86ZM11.3091 14.1152L12.7394 46.0832L12.7483 46.0828L12.7572 46.0824L11.3091 14.1152ZM5.30362 14.1127L3.63892 46.0694L3.7305 46.0742L3.8221 46.0784L5.30362 14.1127ZM3.92182 13.8526L15.6227 -15.9315L15.3255 -16.0482L15.026 -16.159L3.92182 13.8526ZM3.06963 13.297L26.0489 -8.97294L25.6457 -9.38906L25.2276 -9.7903L3.06963 13.297ZM2.51345 12.4442L32.5748 1.47544L32.4406 1.10769L32.2975 0.743333L2.51345 12.4442ZM2.2539 11.063L-29.7257 12.2052L-29.7164 12.4672L-29.7027 12.7291L2.2539 11.063ZM2.2539 5.06556L-29.7027 3.39944L-29.7167 3.66805L-29.7262 3.93685L2.2539 5.06556ZM2.51345 3.685L32.2975 15.3859L32.4224 15.068L32.5404 14.7476L2.51345 3.685ZM3.92182 2.27663L14.955 32.3144L15.3212 32.1799L15.6841 32.0365L3.92182 2.27663ZM5.29435 2.01646L4.16564 -29.9636L3.91047 -29.9546L3.65548 -29.9415L5.29435 2.01646ZM8.2971 1.97938L26.0476 -24.6462L17.986 -30.0206H8.2971V1.97938ZM8.32491 4.27084V36.2708V4.27084ZM4.51693 8.07882H-27.4831H4.51693ZM8.32491 11.8868L8.32491 -20.1132L8.32491 11.8868ZM13.1736 4.12067L45.1514 5.31262L45.1736 4.71685V4.12067L13.1736 4.12067ZM12.2837 4.97801V-27.022V4.97801ZM11.3938 4.12067L-20.6062 4.12067V4.71685L-20.584 5.31262L11.3938 4.12067ZM12.2837 3.23078V35.2308V3.23078ZM8.32491 -31.3369C6.12633 -31.3369 5.33085 -31.3269 3.84419 -31.2607L6.69136 32.6759C6.89843 32.6667 6.92085 32.666 6.9156 32.6662C6.87624 32.6675 6.84475 32.6681 6.85741 32.6679C6.89248 32.6673 7.00128 32.6659 7.25083 32.6648C7.49984 32.6637 7.83846 32.6631 8.32491 32.6631V-31.3369ZM3.76708 -31.2572C-0.00291806 -31.0802 -4.00432 -30.3737 -8.11374 -28.7783L15.0489 30.8831C13.6549 31.4244 12.141 31.8793 10.5437 32.1998C9.00718 32.5081 7.71034 32.6282 6.76847 32.6724L3.76708 -31.2572ZM-8.1033 -28.7824C-12.4494 -27.0968 -16.7057 -24.4877 -20.4736 -20.7197L24.7812 24.5351C23.4812 25.8352 21.9147 27.1405 20.0701 28.3247C18.2329 29.5042 16.4957 30.322 15.0385 30.8872L-8.1033 -28.7824ZM-20.4736 -20.7197C-24.218 -16.9753 -26.8499 -12.7176 -28.5539 -8.30379L31.1509 14.7468C30.5764 16.2349 29.7495 17.9891 28.5634 19.835C27.3742 21.6857 26.0688 23.2476 24.7812 24.5351L-20.4736 -20.7197ZM-28.5322 -8.35983C-30.1213 -4.26688 -30.8365 -0.262127 -31.0123 3.54594L32.9196 6.49742C32.8754 7.45479 32.7542 8.76186 32.4441 10.3055C32.1219 11.909 31.666 13.4202 31.1292 14.8029L-28.5322 -8.35983ZM-31.0112 3.52333C-31.0846 5.08868 -31.0908 5.94902 -31.0908 8.07882H32.9092C32.9092 7.5867 32.9096 7.24428 32.9107 6.99022C32.9117 6.73474 32.9131 6.62656 32.9136 6.59339C32.9137 6.58422 32.913 6.6276 32.9109 6.6862C32.9099 6.7149 32.9098 6.70637 32.9186 6.52004L-31.0112 3.52333ZM-31.0908 8.07882C-31.0908 10.2774 -31.0808 11.0729 -31.0146 12.5595L32.922 9.71236C32.9128 9.5053 32.9121 9.48287 32.9123 9.48813C32.9136 9.52749 32.9142 9.55898 32.914 9.54632C32.9134 9.51125 32.912 9.40245 32.9109 9.15289C32.9098 8.90389 32.9092 8.56527 32.9092 8.07882H-31.0908ZM-31.0111 12.6378C-30.8341 16.4036 -30.1285 20.4058 -28.5322 24.5175L31.1292 1.35478C31.6719 2.75243 32.1264 4.26669 32.4462 5.86143C32.754 7.3959 32.8741 8.6916 32.9184 9.63408L-31.0111 12.6378ZM-28.6521 24.2039C-26.8276 29.0535 -23.9675 33.4469 -20.2712 37.078L24.5788 -8.5781C27.5207 -5.68816 29.797 -2.19146 31.2491 1.66831L-28.6521 24.2039ZM-20.6886 36.6603C-17.0502 40.3688 -12.6448 43.2367 -7.78104 45.063L14.7163 -14.8525C18.5899 -13.3981 22.0985 -11.114 24.9962 -8.16045L-20.6886 36.6603ZM-8.06671 44.9542C-4.02607 46.5156 -0.0460518 47.2387 3.79089 47.416L6.74467 -16.5158C7.71343 -16.4711 9.02152 -16.3485 10.5601 -16.039C12.1562 -15.7179 13.6489 -15.2666 15.0019 -14.7437L-8.06671 44.9542ZM3.76942 47.415C5.33478 47.4883 6.19513 47.4945 8.32491 47.4945V-16.5055C7.8328 -16.5055 7.49037 -16.5059 7.23631 -16.5069C6.98082 -16.508 6.87265 -16.5093 6.83948 -16.5099C6.8303 -16.51 6.87369 -16.5092 6.93228 -16.5072C6.96099 -16.5061 6.95246 -16.5061 6.76613 -16.5148L3.76942 47.415ZM8.32491 47.4945C10.5235 47.4945 11.319 47.4846 12.8056 47.4184L9.95846 -16.5183C9.7514 -16.509 9.72897 -16.5084 9.73423 -16.5085C9.7736 -16.5099 9.80508 -16.5105 9.79242 -16.5103C9.75735 -16.5097 9.64855 -16.5082 9.39899 -16.5071C9.14998 -16.506 8.81137 -16.5055 8.32491 -16.5055V47.4945ZM12.8839 47.4148C16.6753 47.2367 20.6589 46.5242 24.7296 44.9491L1.63478 -14.7387C3.00968 -15.2706 4.50987 -15.7219 6.09956 -16.0411C7.63062 -16.3486 8.92781 -16.4699 9.88018 -16.5147L12.8839 47.4148ZM24.4646 45.0503C29.3034 43.2272 33.6877 40.3731 37.3132 36.686L-8.3211 -8.18616C-5.43706 -11.1192 -1.94942 -13.3896 1.89984 -14.8399L24.4646 45.0503ZM36.8995 37.0991C40.6138 33.4572 43.4854 29.0461 45.3125 24.1757L-14.6099 1.69652C-13.1543 -2.1836 -10.8665 -5.69784 -7.90745 -8.59921L36.8995 37.0991ZM45.1952 24.4836C46.7639 20.4294 47.4851 16.4421 47.662 12.6128L-16.2698 9.65906C-16.225 8.69119 -16.1026 7.38373 -15.7932 5.84549C-15.4723 4.24972 -15.0201 2.75216 -14.4926 1.38869L45.1952 24.4836ZM47.661 12.6343C47.7344 11.0689 47.7406 10.2086 47.7406 8.07882H-16.2594C-16.2594 8.57093 -16.2598 8.91336 -16.2608 9.16742C-16.2619 9.4229 -16.2632 9.53108 -16.2638 9.56425C-16.2639 9.57343 -16.2632 9.53004 -16.2611 9.47145C-16.2601 9.44274 -16.26 9.45127 -16.2688 9.6376L47.661 12.6343ZM47.7406 8.07882C47.7406 5.88025 47.7307 5.08476 47.6645 3.59809L-16.2722 6.44527C-16.263 6.65233 -16.2623 6.67476 -16.2624 6.6695C-16.2638 6.63013 -16.2644 6.59865 -16.2642 6.61131C-16.2636 6.64638 -16.2622 6.75518 -16.261 7.00474C-16.2599 7.25374 -16.2594 7.59236 -16.2594 8.07882H47.7406ZM47.6609 3.51981C47.4831 -0.263824 46.7725 -4.25486 45.1901 -8.33906L-14.4875 14.7821C-15.0242 13.3968 -15.4762 11.8916 -15.7954 10.3023C-16.1027 8.77158 -16.2239 7.47502 -16.2686 6.52355L47.6609 3.51981ZM45.2998 -8.05191C43.4758 -12.8974 40.618 -17.2872 36.9253 -20.9162L-7.93324 24.7315C-10.8717 21.8439 -13.1457 18.3507 -14.5971 14.4949L45.2998 -8.05191ZM37.3562 -20.4845C33.7087 -24.2082 29.2883 -27.0859 24.407 -28.9143L1.95739 31.0191C-1.93339 29.5617 -5.45682 27.268 -8.36416 24.2999L37.3562 -20.4845ZM24.7636 -28.7783C20.6684 -30.3682 16.6628 -31.0826 12.8589 -31.2583L9.90516 32.6735C8.94716 32.6292 7.64121 32.5079 6.09956 32.1983C4.4987 31.8768 2.98714 31.4213 1.60087 30.8831L24.7636 -28.7783ZM12.8804 -31.2573C11.315 -31.3307 10.4547 -31.3369 8.32491 -31.3369V32.6631C8.81702 32.6631 9.15945 32.6636 9.4135 32.6646C9.66899 32.6656 9.77717 32.667 9.81033 32.6675C9.81951 32.6676 9.77612 32.6669 9.71753 32.6648C9.68882 32.6638 9.69736 32.6637 9.88369 32.6725L12.8804 -31.2573ZM8.32491 33.9979C8.80029 33.9979 9.12928 33.9985 9.36913 33.9996C9.6091 34.0008 9.7112 34.0022 9.74058 34.0027C9.7477 34.0028 9.71645 34.0022 9.68265 34.001C9.6765 34.0008 9.68635 34.0011 9.72693 34.0028C9.77311 34.0047 9.82898 34.0071 9.93211 34.0116L12.7121 -29.928C11.2754 -29.9905 10.5247 -30.0021 8.32491 -30.0021V33.9979ZM9.81949 34.0065C8.68125 33.953 7.21586 33.8037 5.52345 33.4436C3.71965 33.0597 2.17986 32.5474 0.984362 32.0772L24.4123 -27.4806C20.8418 -28.8852 16.9957 -29.7268 12.8247 -29.9229L9.81949 34.0065ZM1.17186 32.1502C-0.354539 31.5609 -2.24805 30.6793 -4.27123 29.3654C-6.29331 28.0522 -7.85781 26.6882 -8.99418 25.5599L36.0989 -19.856C32.7237 -23.2073 28.7333 -25.8129 24.2248 -27.5537L1.17186 32.1502ZM-9.10199 25.4524C-10.2617 24.2899 -11.6406 22.7081 -12.961 20.6748C-14.2793 18.6449 -15.1599 16.7494 -15.7459 15.2319L43.9581 -7.82108C42.2267 -12.3052 39.6201 -16.327 36.2068 -19.7485L-9.10199 25.4524ZM-15.7207 15.2968C-16.1492 14.1942 -16.6554 12.6867 -17.0398 10.8803C-17.4011 9.18247 -17.5529 7.70084 -17.6059 6.52971L46.3285 3.63354C46.1351 -0.637348 45.2676 -4.45166 43.9329 -7.88607L-15.7207 15.2968ZM-17.6063 6.52093C-17.5973 6.72088 -17.5969 6.73666 -17.5975 6.72137C-17.5992 6.67226 -17.5999 6.63264 -17.5998 6.63887C-17.5993 6.6687 -17.598 6.77206 -17.597 7.01861C-17.5959 7.2642 -17.5954 7.59771 -17.5954 8.07882H46.4046C46.4046 5.94342 46.3966 5.14512 46.3289 3.64233L-17.6063 6.52093ZM-17.5954 8.07882C-17.5954 8.55672 -17.596 8.88564 -17.5971 9.12529C-17.5982 9.3656 -17.5996 9.46152 -17.6 9.4824C-17.6001 9.48826 -17.5999 9.47549 -17.5992 9.44967C-17.5985 9.42281 -17.5977 9.39771 -17.597 9.37954C-17.5964 9.36385 -17.5967 9.37662 -17.6064 9.58514L46.3241 12.5669C46.3945 11.0565 46.4046 10.2512 46.4046 8.07882H-17.5954ZM-17.5978 9.40989C-17.5395 8.29233 -17.3868 6.85838 -17.0307 5.20421C-16.6513 3.44134 -16.152 1.94462 -15.7042 0.799452L43.9016 24.105C45.258 20.6359 46.1002 16.8704 46.3154 12.7421L-17.5978 9.40989ZM-15.8653 1.22005C-14.3463 -2.83199 -11.9587 -6.50233 -8.87017 -9.53325L35.9564 36.1458C39.5356 32.6335 42.3024 28.3801 44.0626 23.6844L-15.8653 1.22005ZM-9.35439 -9.04778C-6.27894 -12.198 -2.54135 -14.6247 1.58768 -16.1522L23.7929 43.8722C28.5656 42.1066 32.8858 39.3016 36.4406 35.6604L-9.35439 -9.04778ZM1.05093 -15.9481C2.24837 -16.4157 3.77412 -16.9182 5.55324 -17.2944C7.23044 -17.649 8.6962 -17.7992 9.86104 -17.852L12.7572 46.0824C16.956 45.8922 20.7985 45.047 24.3297 43.6681L1.05093 -15.9481ZM9.87884 -17.8528C9.67559 -17.8437 9.65771 -17.8432 9.67012 -17.8437C9.71703 -17.8453 9.7555 -17.846 9.74902 -17.8459C9.71889 -17.8454 9.61529 -17.8441 9.36844 -17.8431C9.1225 -17.842 8.78846 -17.8415 8.30637 -17.8415V46.1585C10.4493 46.1585 11.2388 46.1504 12.7394 46.0832L9.87884 -17.8528ZM8.30637 -17.8415C7.82731 -17.8415 7.49778 -17.8421 7.25774 -17.8432C7.0171 -17.8443 6.92101 -17.8457 6.89993 -17.8461C6.89395 -17.8462 6.90642 -17.846 6.93176 -17.8453C6.95811 -17.8446 6.98242 -17.8438 6.99945 -17.8432C7.01209 -17.8427 6.99733 -17.8431 6.78514 -17.8529L3.8221 46.0784C5.32981 46.1483 6.12557 46.1585 8.30637 46.1585V-17.8415ZM6.96831 -17.8439C8.07757 -17.7861 9.49523 -17.6354 11.1295 -17.2859C12.8651 -16.9148 14.3829 -16.4185 15.6227 -15.9315L-7.77906 43.6366C-4.21118 45.0383 -0.414426 45.8583 3.63892 46.0694L6.96831 -17.8439ZM15.026 -16.159C19.1914 -14.6179 22.9581 -12.1622 26.0489 -8.97294L-19.9097 35.567C-16.3409 39.2494 -11.9918 42.0847 -7.18236 43.8642L15.026 -16.159ZM25.2276 -9.7903C28.5046 -6.6452 31.0179 -2.79146 32.5748 1.47544L-27.5479 23.413C-25.7553 28.3259 -22.8615 32.7631 -19.0883 36.3843L25.2276 -9.7903ZM32.2975 0.743333C32.7918 2.00159 33.2872 3.52429 33.6562 5.25515C34.0037 6.88492 34.1531 8.29634 34.2105 9.39692L-29.7027 12.7291C-29.4928 16.7544 -28.6816 20.5534 -27.2706 24.1451L32.2975 0.743333ZM34.2335 9.9209C34.2193 9.52319 34.2216 9.57386 34.2212 9.5439C34.219 9.39843 34.2162 9.0538 34.2162 8.06955H-29.7838C-29.7838 10.2792 -29.7715 10.9239 -29.7257 12.2052L34.2335 9.9209ZM34.2162 8.06955C34.2162 7.08563 34.219 6.73959 34.2212 6.59157C34.2217 6.55524 34.2197 6.6005 34.234 6.19427L-29.7262 3.93685C-29.7714 5.2171 -29.7838 5.85592 -29.7838 8.06955H34.2162ZM34.2105 6.73167C34.1531 7.83284 34.0035 9.24603 33.6553 10.8782C33.2853 12.6123 32.7892 14.1342 32.2975 15.3859L-27.2706 -8.01588C-28.6794 -4.42976 -29.4925 -0.632053 -29.7027 3.39944L34.2105 6.73167ZM32.5404 14.7476C31.8561 16.6051 30.8671 18.7041 29.4492 20.8522C28.0641 22.9505 26.6719 24.4841 25.697 25.459L-19.5578 -19.7958C-22.6382 -16.7154 -25.575 -12.6393 -27.5135 -7.37757L32.5404 14.7476ZM25.697 25.459C24.7165 26.4395 23.1819 27.8311 21.0858 29.2143C18.94 30.6303 16.8348 31.6239 14.955 32.3144L-7.11139 -27.7612C-12.3978 -25.8194 -16.4828 -22.8708 -19.5578 -19.7958L25.697 25.459ZM15.6841 32.0365C14.5103 32.5004 12.9844 33.0132 11.1901 33.4007C9.50929 33.7637 8.05647 33.9169 6.93322 33.9745L3.65548 -29.9415C-0.491571 -29.7289 -4.30432 -28.8808 -7.84041 -27.4832L15.6841 32.0365ZM6.42306 33.9965C6.82185 33.9825 6.77394 33.9847 6.80603 33.9842C6.95637 33.9821 7.30369 33.9794 8.2971 33.9794V-30.0206C6.09225 -30.0206 5.45761 -30.0092 4.16564 -29.9636L6.42306 33.9965ZM-9.45342 28.6049L-9.42561 28.6234L26.0754 -24.6276L26.0476 -24.6462L-9.45342 28.6049ZM8.32491 -27.7292C3.62252 -27.7292 -1.03381 -26.803 -5.37821 -25.0034L19.1135 34.1248C15.6931 35.5416 12.0272 36.2708 8.32491 36.2708L8.32491 -27.7292ZM-5.37821 -25.0034C-9.72262 -23.2039 -13.6701 -20.5663 -16.9952 -17.2412L28.2597 28.0136C25.6418 30.6315 22.5339 32.7081 19.1135 34.1248L-5.37821 -25.0034ZM-16.9952 -17.2412C-20.3202 -13.9162 -22.9578 -9.96872 -24.7573 -5.6243L34.3709 18.8674C32.9542 22.2878 30.8776 25.3957 28.2597 28.0136L-16.9952 -17.2412ZM-24.7573 -5.6243C-26.5569 -1.27988 -27.4831 3.37644 -27.4831 8.07882H36.5169C36.5169 11.781 35.7877 15.447 34.3709 18.8674L-24.7573 -5.6243ZM-27.4831 8.07882C-27.4831 12.7812 -26.5569 17.4375 -24.7573 21.7819L34.3709 -2.7098C35.7877 0.710603 36.5169 4.37658 36.5169 8.07882H-27.4831ZM-24.7573 21.7819C-22.9578 26.1264 -20.3202 30.0738 -16.9952 33.3989L28.2597 -11.856C30.8776 -9.23808 32.9542 -6.13021 34.3709 -2.7098L-24.7573 21.7819ZM-16.9952 33.3989C-13.6701 36.7239 -9.72264 39.3615 -5.37821 41.1611L19.1135 -17.9672C22.534 -16.5504 25.6418 -14.4738 28.2597 -11.856L-16.9952 33.3989ZM-5.37821 41.1611C-1.03381 42.9606 3.62252 43.8868 8.32491 43.8868L8.32491 -20.1132C12.0272 -20.1132 15.6931 -19.384 19.1135 -17.9672L-5.37821 41.1611ZM8.32491 43.8868C17.8218 43.8868 26.9297 40.1142 33.645 33.3989L-11.6099 -11.856C-6.32285 -17.143 0.847898 -20.1132 8.32491 -20.1132V43.8868ZM33.645 33.3989C40.3603 26.6836 44.1329 17.5757 44.1329 8.07882H-19.8671C-19.8671 0.601804 -16.8969 -6.56894 -11.6099 -11.856L33.645 33.3989ZM44.1329 8.07882C44.1329 -1.41807 40.3603 -10.526 33.645 -17.2412L-11.6099 28.0136C-16.8969 22.7266 -19.8671 15.5558 -19.8671 8.07882H44.1329ZM33.645 -17.2412C26.9297 -23.9565 17.8218 -27.7292 8.32491 -27.7292V36.2708C0.847916 36.2708 -6.32283 33.3006 -11.6099 28.0136L33.645 -17.2412ZM8.32491 -21.4493C24.6323 -21.4493 37.853 -8.22857 37.853 8.07882H-26.147C-26.147 27.1177 -10.7139 42.5507 8.32491 42.5507V-21.4493ZM37.853 8.07882C37.853 24.3862 24.6323 37.6069 8.32491 37.6069V-26.3931C-10.7139 -26.3931 -26.147 -10.96 -26.147 8.07882H37.853ZM8.32491 37.6069C-7.98247 37.6069 -21.2032 24.3862 -21.2032 8.07882H42.7968C42.7968 -10.96 27.3638 -26.3931 8.32491 -26.3931V37.6069ZM-21.2032 8.07882C-21.2032 -8.22857 -7.98247 -21.4493 8.32491 -21.4493V42.5507C27.3638 42.5507 42.7968 27.1177 42.7968 8.07882H-21.2032ZM-18.8042 2.92872C-18.5044 -5.11579 -15.0978 -12.7309 -9.30048 -18.3162L35.1035 27.7738C41.2328 21.8687 44.8343 13.8177 45.1514 5.31262L-18.8042 2.92872ZM-9.30048 -18.3162C-3.50312 -23.9015 4.23358 -27.022 12.2837 -27.022V36.978C20.7946 36.978 28.9743 33.6788 35.1035 27.7738L-9.30048 -18.3162ZM12.2837 -27.022C20.3337 -27.022 28.0704 -23.9015 33.8678 -18.3162L-10.5362 27.7738C-4.40689 33.6789 3.77275 36.978 12.2837 36.978V-27.022ZM33.8678 -18.3162C39.6652 -12.7309 43.0717 -5.11579 43.3716 2.92872L-20.584 5.31262C-20.267 13.8177 -16.6654 21.8687 -10.5362 27.7738L33.8678 -18.3162ZM43.3938 4.12067C43.3938 12.3716 40.1161 20.2846 34.2818 26.1188L-10.973 -19.136C-17.141 -12.968 -20.6062 -4.60231 -20.6062 4.12067L43.3938 4.12067ZM34.2818 26.1188C28.4476 31.9531 20.5346 35.2308 12.2837 35.2308V-28.7692C3.56073 -28.7692 -4.80494 -25.304 -10.973 -19.136L34.2818 26.1188ZM12.2837 35.2308C4.03276 35.2308 -3.88022 31.9531 -9.7145 26.1188L35.5403 -19.136C29.3723 -25.304 21.0066 -28.7692 12.2837 -28.7692V35.2308ZM-9.7145 26.1188C-15.5488 20.2845 -18.8264 12.3716 -18.8264 4.12067L45.1736 4.12067C45.1736 -4.60224 41.7084 -12.9679 35.5403 -19.136L-9.7145 26.1188Z" fill="#CDCDCD" mask="url(#path-1-inside-1_146_858)"/>
</svg>
