<svg width="33" height="33" viewBox="0 0 33 33" fill="none" xmlns="http://www.w3.org/2000/svg">
<mask id="path-1-inside-1_276_857" fill="white">
<path d="M16.2219 0.440918C11.815 0.440918 11.2648 0.461195 9.53443 0.538249C7.80679 0.619359 6.63071 0.891076 5.59656 1.29257C4.52997 1.70623 3.62425 2.26183 2.72258 3.1635C1.82091 4.06516 1.26396 4.96953 0.85165 6.03748C0.450158 7.07162 0.177089 8.24771 0.0973315 9.97535C0.0162219 11.7057 0 12.2559 0 16.6628C0 21.0698 0.0202774 21.62 0.0973315 23.3503C0.178441 25.0766 0.450158 26.254 0.85165 27.2882C1.25894 28.3708 1.89742 29.3516 2.72258 30.1622C3.5327 30.9879 4.51361 31.6265 5.59656 32.0331C6.63206 32.4332 7.80815 32.7077 9.53443 32.7874C11.2648 32.8685 11.815 32.8847 16.2219 32.8847C20.6289 32.8847 21.1791 32.8645 22.9094 32.7874C24.6357 32.7063 25.8131 32.4332 26.8473 32.0331C27.9296 31.6253 28.9103 30.9869 29.7212 30.1622C30.5473 29.3523 31.1859 28.3713 31.5922 27.2882C31.9923 26.254 32.2667 25.0766 32.3465 23.3503C32.4276 21.62 32.4438 21.0698 32.4438 16.6628C32.4438 12.2559 32.4235 11.7057 32.3465 9.97535C32.2654 8.24906 31.9923 7.07027 31.5922 6.03748C31.1847 4.95496 30.5462 3.97422 29.7212 3.1635C28.9117 2.33704 27.9306 1.69837 26.8473 1.29257C25.8131 0.891076 24.6357 0.618007 22.9094 0.538249C21.1791 0.45714 20.6289 0.440918 16.2219 0.440918ZM16.2219 3.36086C20.5518 3.36086 21.0682 3.38249 22.7783 3.45684C24.3599 3.53119 25.2183 3.79345 25.7888 4.01785C26.5485 4.3112 27.0865 4.66267 27.657 5.22909C28.2234 5.79685 28.5749 6.33623 28.8682 7.09596C29.0899 7.66643 29.3549 8.52484 29.4265 10.1065C29.5036 11.8179 29.5212 12.3316 29.5212 16.6628C29.5212 20.9941 29.5009 21.5091 29.4211 23.2192C29.3387 24.8008 29.0751 25.6592 28.852 26.2297C28.5881 26.9337 28.1733 27.5713 27.6367 28.0979C27.1124 28.635 26.4752 29.0487 25.7712 29.3092C25.2034 29.5309 24.3315 29.7958 22.7499 29.8675C21.0277 29.9445 20.5207 29.9621 16.1814 29.9621C11.8406 29.9621 11.3337 29.9418 9.61283 29.8621C8.02985 29.7796 7.15792 29.516 6.59015 29.2929C5.88572 29.0323 5.2487 28.617 4.72598 28.0776C4.18334 27.5568 3.76715 26.9187 3.50934 26.2121C3.28629 25.6444 3.02403 24.7724 2.94157 23.1908C2.88074 21.4875 2.85911 20.9616 2.85911 16.6425C2.85911 12.3221 2.88074 11.7949 2.94157 10.0713C3.02403 8.48969 3.28629 7.61911 3.50934 7.05135C3.79322 6.28081 4.15686 5.75359 4.72598 5.18447C5.2924 4.61806 5.82096 4.25307 6.59015 3.97054C7.15792 3.74613 8.01092 3.48253 9.59256 3.40142C11.3161 3.34058 11.8231 3.32031 16.1611 3.32031L16.2219 3.36086ZM16.2219 8.33288C15.128 8.33288 14.0448 8.54834 13.0342 8.96696C12.0235 9.38558 11.1053 9.99916 10.3317 10.7727C9.55824 11.5462 8.94466 12.4645 8.52604 13.4751C8.10742 14.4857 7.89196 15.5689 7.89196 16.6628C7.89196 17.7567 8.10742 18.8399 8.52604 19.8506C8.94466 20.8612 9.55824 21.7795 10.3317 22.553C11.1053 23.3265 12.0235 23.9401 13.0342 24.3587C14.0448 24.7773 15.128 24.9928 16.2219 24.9928C18.4312 24.9928 20.5499 24.1152 22.1121 22.553C23.6742 20.9908 24.5519 18.8721 24.5519 16.6628C24.5519 14.4536 23.6742 12.3348 22.1121 10.7727C20.5499 9.21049 18.4312 8.33288 16.2219 8.33288ZM16.2219 22.0701C13.2344 22.0701 10.8146 19.6504 10.8146 16.6628C10.8146 13.6753 13.2344 11.2555 16.2219 11.2555C19.2094 11.2555 21.6292 13.6753 21.6292 16.6628C21.6292 19.6504 19.2094 22.0701 16.2219 22.0701ZM26.8283 8.00438C26.8096 8.50811 26.5963 8.98494 26.2332 9.33467C25.8702 9.68441 25.3858 9.87981 24.8817 9.87981C24.3776 9.87981 23.8932 9.68441 23.5302 9.33467C23.1672 8.98494 22.9539 8.50811 22.9351 8.00438C22.9351 7.48811 23.1402 6.99297 23.5052 6.62791C23.8703 6.26285 24.3654 6.05775 24.8817 6.05775C25.398 6.05775 25.8931 6.26285 26.2582 6.62791C26.6232 6.99297 26.8283 7.48811 26.8283 8.00438Z"/>
</mask>
<path d="M16.2219 0.440918C11.815 0.440918 11.2648 0.461195 9.53443 0.538249C7.80679 0.619359 6.63071 0.891076 5.59656 1.29257C4.52997 1.70623 3.62425 2.26183 2.72258 3.1635C1.82091 4.06516 1.26396 4.96953 0.85165 6.03748C0.450158 7.07162 0.177089 8.24771 0.0973315 9.97535C0.0162219 11.7057 0 12.2559 0 16.6628C0 21.0698 0.0202774 21.62 0.0973315 23.3503C0.178441 25.0766 0.450158 26.254 0.85165 27.2882C1.25894 28.3708 1.89742 29.3516 2.72258 30.1622C3.5327 30.9879 4.51361 31.6265 5.59656 32.0331C6.63206 32.4332 7.80815 32.7077 9.53443 32.7874C11.2648 32.8685 11.815 32.8847 16.2219 32.8847C20.6289 32.8847 21.1791 32.8645 22.9094 32.7874C24.6357 32.7063 25.8131 32.4332 26.8473 32.0331C27.9296 31.6253 28.9103 30.9869 29.7212 30.1622C30.5473 29.3523 31.1859 28.3713 31.5922 27.2882C31.9923 26.254 32.2667 25.0766 32.3465 23.3503C32.4276 21.62 32.4438 21.0698 32.4438 16.6628C32.4438 12.2559 32.4235 11.7057 32.3465 9.97535C32.2654 8.24906 31.9923 7.07027 31.5922 6.03748C31.1847 4.95496 30.5462 3.97422 29.7212 3.1635C28.9117 2.33704 27.9306 1.69837 26.8473 1.29257C25.8131 0.891076 24.6357 0.618007 22.9094 0.538249C21.1791 0.45714 20.6289 0.440918 16.2219 0.440918ZM16.2219 3.36086C20.5518 3.36086 21.0682 3.38249 22.7783 3.45684C24.3599 3.53119 25.2183 3.79345 25.7888 4.01785C26.5485 4.3112 27.0865 4.66267 27.657 5.22909C28.2234 5.79685 28.5749 6.33623 28.8682 7.09596C29.0899 7.66643 29.3549 8.52484 29.4265 10.1065C29.5036 11.8179 29.5212 12.3316 29.5212 16.6628C29.5212 20.9941 29.5009 21.5091 29.4211 23.2192C29.3387 24.8008 29.0751 25.6592 28.852 26.2297C28.5881 26.9337 28.1733 27.5713 27.6367 28.0979C27.1124 28.635 26.4752 29.0487 25.7712 29.3092C25.2034 29.5309 24.3315 29.7958 22.7499 29.8675C21.0277 29.9445 20.5207 29.9621 16.1814 29.9621C11.8406 29.9621 11.3337 29.9418 9.61283 29.8621C8.02985 29.7796 7.15792 29.516 6.59015 29.2929C5.88572 29.0323 5.2487 28.617 4.72598 28.0776C4.18334 27.5568 3.76715 26.9187 3.50934 26.2121C3.28629 25.6444 3.02403 24.7724 2.94157 23.1908C2.88074 21.4875 2.85911 20.9616 2.85911 16.6425C2.85911 12.3221 2.88074 11.7949 2.94157 10.0713C3.02403 8.48969 3.28629 7.61911 3.50934 7.05135C3.79322 6.28081 4.15686 5.75359 4.72598 5.18447C5.2924 4.61806 5.82096 4.25307 6.59015 3.97054C7.15792 3.74613 8.01092 3.48253 9.59256 3.40142C11.3161 3.34058 11.8231 3.32031 16.1611 3.32031L16.2219 3.36086ZM16.2219 8.33288C15.128 8.33288 14.0448 8.54834 13.0342 8.96696C12.0235 9.38558 11.1053 9.99916 10.3317 10.7727C9.55824 11.5462 8.94466 12.4645 8.52604 13.4751C8.10742 14.4857 7.89196 15.5689 7.89196 16.6628C7.89196 17.7567 8.10742 18.8399 8.52604 19.8506C8.94466 20.8612 9.55824 21.7795 10.3317 22.553C11.1053 23.3265 12.0235 23.9401 13.0342 24.3587C14.0448 24.7773 15.128 24.9928 16.2219 24.9928C18.4312 24.9928 20.5499 24.1152 22.1121 22.553C23.6742 20.9908 24.5519 18.8721 24.5519 16.6628C24.5519 14.4536 23.6742 12.3348 22.1121 10.7727C20.5499 9.21049 18.4312 8.33288 16.2219 8.33288ZM16.2219 22.0701C13.2344 22.0701 10.8146 19.6504 10.8146 16.6628C10.8146 13.6753 13.2344 11.2555 16.2219 11.2555C19.2094 11.2555 21.6292 13.6753 21.6292 16.6628C21.6292 19.6504 19.2094 22.0701 16.2219 22.0701ZM26.8283 8.00438C26.8096 8.50811 26.5963 8.98494 26.2332 9.33467C25.8702 9.68441 25.3858 9.87981 24.8817 9.87981C24.3776 9.87981 23.8932 9.68441 23.5302 9.33467C23.1672 8.98494 22.9539 8.50811 22.9351 8.00438C22.9351 7.48811 23.1402 6.99297 23.5052 6.62791C23.8703 6.26285 24.3654 6.05775 24.8817 6.05775C25.398 6.05775 25.8931 6.26285 26.2582 6.62791C26.6232 6.99297 26.8283 7.48811 26.8283 8.00438Z" fill="#BE9F31"/>
<path d="M9.53443 0.538249L8.11084 -31.4301L8.07228 -31.4284L8.03373 -31.4265L9.53443 0.538249ZM5.59656 1.29257L17.1675 31.1274L17.1779 31.1233L5.59656 1.29257ZM0.85165 6.03748L30.6824 17.6188L30.6933 17.5908L30.7041 17.5628L0.85165 6.03748ZM0.0973315 9.97535L32.0622 11.4737L32.0628 11.4624L32.0633 11.4511L0.0973315 9.97535ZM0.0973315 23.3503L-31.871 24.7739L-31.8692 24.813L-31.8674 24.8522L0.0973315 23.3503ZM0.85165 27.2882L30.8022 16.0204L30.7431 15.8633L30.6824 15.7068L0.85165 27.2882ZM2.72258 30.1622L25.565 7.75177L25.3582 7.54102L25.1476 7.33412L2.72258 30.1622ZM5.59656 32.0331L17.1309 2.18414L16.9883 2.12905L16.8452 2.07532L5.59656 32.0331ZM9.53443 32.7874L11.0328 0.822506L11.0221 0.822003L11.0113 0.821507L9.53443 32.7874ZM22.9094 32.7874L24.333 64.7557L24.3721 64.754L24.4113 64.7521L22.9094 32.7874ZM26.8473 32.0331L15.5649 2.08801L15.4321 2.13802L15.2998 2.18922L26.8473 32.0331ZM29.7212 30.1622L7.31776 7.31301L7.10905 7.51765L6.90411 7.72607L29.7212 30.1622ZM31.5922 27.2882L1.7483 15.7407L1.68886 15.8944L1.631 16.0486L31.5922 27.2882ZM32.3465 23.3503L0.381588 21.852L0.381085 21.8627L0.380589 21.8734L32.3465 23.3503ZM32.3465 9.97535L64.3148 8.55176L64.3131 8.51262L64.3112 8.47348L32.3465 9.97535ZM31.5922 6.03748L1.64371 17.3109L1.69786 17.4547L1.75339 17.5981L31.5922 6.03748ZM29.7212 3.1635L6.86105 25.5557L7.07445 25.7736L7.29197 25.9873L29.7212 3.1635ZM26.8473 1.29257L15.2659 31.1233L15.4438 31.1923L15.6224 31.2593L26.8473 1.29257ZM22.9094 0.538249L21.411 32.5032L21.4218 32.5037L21.4325 32.5041L22.9094 0.538249ZM16.2219 3.36086L-1.52861 29.9864L6.53301 35.3609H16.2219V3.36086ZM22.7783 3.45684L24.2809 -28.5079L24.2246 -28.5105L24.1683 -28.513L22.7783 3.45684ZM25.7888 4.01785L14.0748 33.7967L14.1684 33.8336L14.2623 33.8698L25.7888 4.01785ZM27.657 5.22909L50.3114 -17.3713L50.2576 -17.4253L50.2036 -17.4789L27.657 5.22909ZM28.8682 7.09596L-0.983734 18.6224L-0.971183 18.6549L-0.95856 18.6874L28.8682 7.09596ZM29.4265 10.1065L61.3942 8.66717L61.3938 8.65839L29.4265 10.1065ZM29.4211 23.2192L61.3777 24.8853L61.3823 24.7977L61.3864 24.7101L29.4211 23.2192ZM28.852 26.2297L-0.950873 14.5769L-1.03288 14.7866L-1.11192 14.9975L28.852 26.2297ZM27.6367 28.0979L5.22344 5.25838L4.97873 5.49852L4.73923 5.74385L27.6367 28.0979ZM25.7712 29.3092L14.6686 -0.703034L14.3993 -0.603414L14.1318 -0.498979L25.7712 29.3092ZM22.7499 29.8675L24.1802 61.8355L24.1891 61.8351L24.198 61.8347L22.7499 29.8675ZM9.61283 29.8621L7.94814 61.8187L8.03971 61.8235L8.13131 61.8277L9.61283 29.8621ZM6.59015 29.2929L18.291 -0.491109L17.9938 -0.607871L17.6943 -0.718679L6.59015 29.2929ZM4.72598 28.0776L27.7053 5.80769L27.302 5.39157L26.884 4.99032L4.72598 28.0776ZM3.50934 26.2121L33.5707 15.2434L33.4365 14.8756L33.2934 14.5112L3.50934 26.2121ZM2.94157 23.1908L-29.038 24.3329L-29.0287 24.595L-29.015 24.8569L2.94157 23.1908ZM2.94157 10.0713L-29.015 8.40521L-29.029 8.67382L-29.0385 8.94262L2.94157 10.0713ZM3.50934 7.05135L33.2934 18.7522L33.4183 18.4344L33.5363 18.1139L3.50934 7.05135ZM6.59015 3.97054L17.6234 34.0083L17.9896 33.8738L18.3524 33.7304L6.59015 3.97054ZM9.59256 3.40142L8.46385 -28.5787L8.20868 -28.5697L7.95368 -28.5566L9.59256 3.40142ZM16.1611 3.32031L33.9116 -23.3052L25.85 -28.6797H16.1611V3.32031ZM16.2219 8.33288L16.2219 40.3329L16.2219 8.33288ZM7.89196 16.6628L-24.108 16.6628L7.89196 16.6628ZM16.2219 24.9928L16.2219 -7.00722L16.2219 24.9928ZM26.8283 8.00438L58.8061 9.19633L58.8283 8.60056L58.8283 8.00438L26.8283 8.00438ZM24.8817 9.87981L24.8817 -22.1202L24.8817 9.87981ZM22.9351 8.00438L-9.06492 8.00438L-9.06492 8.60056L-9.04272 9.19633L22.9351 8.00438ZM24.8817 6.05775L24.8817 38.0578L24.8817 6.05775ZM16.2219 -31.5591C11.631 -31.5591 10.5368 -31.5381 8.11084 -31.4301L10.958 32.5066C11.7515 32.4712 11.956 32.4636 12.3944 32.4565C13.0044 32.4466 13.9993 32.4409 16.2219 32.4409V-31.5591ZM8.03373 -31.4265C3.32588 -31.2055 -1.31397 -30.3515 -5.98478 -28.5382L17.1779 31.1233C16.0645 31.5555 14.8506 31.9192 13.6003 32.17C12.4108 32.4087 11.5081 32.4808 11.0351 32.503L8.03373 -31.4265ZM-5.97435 -28.5422C-10.8995 -26.6321 -15.6474 -23.7214 -19.9048 -19.4639L25.35 25.7909C24.2947 26.8462 22.9735 27.9538 21.3854 28.9734C19.8047 29.9882 18.3352 30.6745 17.1675 31.1273L-5.97435 -28.5422ZM-19.9048 -19.4639C-24.1387 -15.2301 -27.0729 -10.4814 -29.0008 -5.48783L30.7041 17.5628C30.2415 18.761 29.5461 20.2475 28.5248 21.837C27.5003 23.4313 26.3928 24.7481 25.35 25.7909L-19.9048 -19.4639ZM-28.9791 -5.54387C-30.7861 -0.889518 -31.6495 3.75368 -31.8686 8.49961L32.0633 11.4511C32.0407 11.9395 31.9674 12.8525 31.727 14.0492C31.4746 15.3056 31.1102 16.5169 30.6824 17.6188L-28.9791 -5.54387ZM-31.8676 8.47699C-31.985 10.9817 -32 12.1407 -32 16.6628H32C32 14.422 32.0047 13.4308 32.0143 12.8173C32.0208 12.4017 32.0276 12.2132 32.0622 11.4737L-31.8676 8.47699ZM-32 16.6628C-32 21.2538 -31.979 22.3479 -31.871 24.7739L32.0657 21.9267C32.0303 21.1333 32.0227 20.9288 32.0155 20.4904C32.0056 19.8804 32 18.8854 32 16.6628H-32ZM-31.8674 24.8522C-31.6464 29.5551 -30.7933 34.1965 -28.9791 38.8695L30.6824 15.7068C31.116 16.8238 31.4792 18.0379 31.7294 19.2855C31.9676 20.4729 32.0398 21.3745 32.0621 21.8484L-31.8674 24.8522ZM-29.0989 38.556C-27.0533 43.9933 -23.8467 48.9191 -19.7024 52.9902L25.1476 7.33412C27.6415 9.78403 29.5712 12.7483 30.8022 16.0204L-29.0989 38.556ZM-20.1198 52.5726C-16.0416 56.7293 -11.1037 59.9439 -5.65209 61.9909L16.8452 2.07532C20.1309 3.30905 23.107 5.24647 25.565 7.75177L-20.1198 52.5726ZM-5.93776 61.882C-1.33499 63.6606 3.28348 64.5327 8.05754 64.7533L11.0113 0.821507C11.5115 0.844618 12.4257 0.919155 13.6172 1.15885C14.8663 1.41012 16.0589 1.7699 17.1309 2.18414L-5.93776 61.882ZM8.03607 64.7523C10.5408 64.8697 11.6998 64.8847 16.2219 64.8847V0.884738C13.9811 0.884738 12.9898 0.880051 12.3764 0.870427C11.9608 0.863906 11.7722 0.857168 11.0328 0.822506L8.03607 64.7523ZM16.2219 64.8847C20.8128 64.8847 21.907 64.8638 24.333 64.7557L21.4858 0.819089C20.6923 0.854423 20.4878 0.862069 20.0495 0.869192C19.4394 0.879105 18.4445 0.884738 16.2219 0.884738V64.8847ZM24.4113 64.7521C29.1397 64.53 33.7626 63.6693 38.3947 61.877L15.2998 2.18922C16.394 1.76584 17.5941 1.40598 18.8367 1.15642C20.0206 0.918624 20.9237 0.845403 21.4075 0.822671L24.4113 64.7521ZM38.1296 61.9782C43.5561 59.9337 48.4727 56.733 52.5384 52.5983L6.90411 7.72607C9.34792 5.24076 12.3032 3.31691 15.5649 2.08801L38.1296 61.9782ZM52.1247 53.0113C56.2874 48.9298 59.5057 43.9861 61.5533 38.5278L1.631 16.0486C2.86602 12.7564 4.80708 9.77472 7.31776 7.31301L52.1247 53.0113ZM61.436 38.8356C63.2219 34.2201 64.0922 29.5936 64.3124 24.8272L0.380589 21.8734C0.403659 21.3741 0.478059 20.4607 0.717607 19.2696C0.968725 18.0209 1.32934 16.8235 1.7483 15.7407L61.436 38.8356ZM64.3114 24.8487C64.4288 22.344 64.4438 21.185 64.4438 16.6628H0.44382C0.44382 18.9036 0.439133 19.8949 0.429509 20.5083C0.422988 20.924 0.41625 21.1125 0.381588 21.852L64.3114 24.8487ZM64.4438 16.6628C64.4438 12.0719 64.4228 10.9778 64.3148 8.55176L0.378171 11.3989C0.413505 12.1924 0.421151 12.3969 0.428274 12.8353C0.438187 13.4453 0.44382 14.4402 0.44382 16.6628H64.4438ZM64.3112 8.47348C64.0894 3.75272 63.2305 -0.878231 61.431 -5.5231L1.75339 17.5981C1.32527 16.4931 0.964579 15.2881 0.715177 14.046C0.477527 12.8624 0.404443 11.9601 0.381753 11.4772L64.3112 8.47348ZM61.5406 -5.23594C59.4955 -10.669 56.2911 -15.5913 52.1505 -19.6603L7.29197 25.9873C4.80136 23.5398 2.87391 20.579 1.64371 17.3109L61.5406 -5.23594ZM52.5814 -19.2287C48.4945 -23.4011 43.5415 -26.6254 38.0721 -28.6741L15.6224 31.2593C12.3198 30.0222 9.32893 28.0752 6.86105 25.5557L52.5814 -19.2287ZM38.4286 -28.5382C33.772 -30.346 29.1273 -31.2086 24.3863 -31.4277L21.4325 32.5041C20.9431 32.4815 20.0312 32.4081 18.8367 32.1682C17.5829 31.9164 16.3715 31.5525 15.2659 31.1233L38.4286 -28.5382ZM24.4077 -31.4267C21.9031 -31.5441 20.744 -31.5591 16.2219 -31.5591V32.4409C18.4627 32.4409 19.454 32.4456 20.0674 32.4552C20.483 32.4618 20.6716 32.4685 21.411 32.5032L24.4077 -31.4267ZM16.2219 35.3609C18.3995 35.3609 19.3653 35.3668 19.9505 35.3765C20.376 35.3836 20.5686 35.391 21.3883 35.4266L24.1683 -28.513C21.8033 -28.6158 20.7722 -28.6391 16.2219 -28.6391V35.3609ZM21.2757 35.4215C20.5667 35.3882 19.4325 35.2846 18.0026 34.9803C16.4613 34.6524 15.1155 34.2061 14.0748 33.7967L37.5028 -25.761C33.6225 -27.2874 29.3105 -28.2714 24.2809 -28.5079L21.2757 35.4215ZM14.2623 33.8698C12.9421 33.3601 11.2247 32.566 9.36483 31.3581C7.50603 30.151 6.09197 28.9116 5.11045 27.9371L50.2036 -17.4789C46.5187 -21.1376 42.2361 -23.9341 37.3153 -25.8341L14.2623 33.8698ZM5.00263 27.8295C3.99668 26.8212 2.74238 25.3895 1.52795 23.5196C0.315714 21.653 -0.477389 19.9338 -0.983734 18.6224L58.7202 -4.43052C56.8296 -9.32704 54.0322 -13.6417 50.3114 -17.3713L5.00263 27.8295ZM-0.95856 18.6874C-1.32691 17.7396 -1.76706 16.4261 -2.09559 14.8821C-2.40099 13.4469 -2.50707 12.2964 -2.54067 11.5546L61.3938 8.65839C61.1614 3.5289 60.1501 -0.751412 58.695 -4.4955L-0.95856 18.6874ZM-2.54107 11.5458C-2.50637 12.3165 -2.4997 12.5013 -2.49322 12.91C-2.48382 13.502 -2.47883 14.4677 -2.47883 16.6628H61.5212C61.5212 12.1762 61.5037 11.099 61.3942 8.66717L-2.54107 11.5458ZM-2.47883 16.6628C-2.47883 18.8519 -2.48454 19.8055 -2.49431 20.3796C-2.50097 20.7713 -2.50739 20.941 -2.54411 21.7283L61.3864 24.7101C61.5001 22.2714 61.5212 21.1865 61.5212 16.6628H-2.47883ZM-2.53546 21.5531C-2.49958 20.8648 -2.39382 19.762 -2.09429 18.3704C-1.77137 16.87 -1.33809 15.5672 -0.950873 14.5769L58.6549 37.8825C60.1324 34.1036 61.1177 29.8721 61.3777 24.8853L-2.53546 21.5531ZM-1.11192 14.9975C0.263757 11.3276 2.42618 8.00344 5.22344 5.25838L50.05 50.9375C53.9205 47.1392 56.9125 42.5397 58.816 37.4619L-1.11192 14.9975ZM4.73923 5.74385C7.53003 2.8852 10.9217 0.683074 14.6686 -0.703034L36.8738 59.3214C42.0286 57.4144 46.6948 54.3848 50.5342 50.452L4.73923 5.74385ZM14.1318 -0.498979C15.1752 -0.906373 16.5055 -1.34277 18.0205 -1.66312C19.4335 -1.96191 20.5663 -2.06644 21.3018 -2.09976L24.198 61.8347C29.2554 61.6056 33.5712 60.6165 37.4106 59.1173L14.1318 -0.498979ZM21.3196 -2.10056C20.5376 -2.06557 20.3508 -2.05883 19.9397 -2.05231C19.3468 -2.0429 18.3806 -2.03791 16.1814 -2.03791V61.9621C20.68 61.9621 21.7446 61.9444 24.1802 61.8355L21.3196 -2.10056ZM16.1814 -2.03791C13.9874 -2.03791 13.0335 -2.04362 12.4587 -2.05339C12.0647 -2.06009 11.8938 -2.06658 11.0944 -2.10363L8.13131 61.8277C10.5732 61.9409 11.6442 61.9621 16.1814 61.9621V-2.03791ZM11.2775 -2.09462C11.9571 -2.05921 13.0416 -1.9554 14.4116 -1.66248C15.883 -1.34788 17.2053 -0.917644 18.291 -0.491109L-5.11073 59.077C-1.23464 60.5997 3.03545 61.5628 7.94814 61.8187L11.2775 -2.09462ZM17.6943 -0.718679C21.4773 0.681002 24.8982 2.91118 27.7053 5.80769L-18.2533 50.3476C-14.4008 54.3228 -9.70585 57.3836 -4.51403 59.3046L17.6943 -0.718679ZM26.884 4.99032C29.8664 7.85271 32.1538 11.36 33.5707 15.2434L-26.552 37.1809C-24.6195 42.4774 -21.4997 47.261 -17.432 51.165L26.884 4.99032ZM33.2934 14.5112C33.7272 15.6154 34.1567 16.9427 34.4694 18.4094C34.7605 19.775 34.8632 20.8534 34.8982 21.5247L-29.015 24.8569C-28.7604 29.7408 -27.8068 34.0131 -26.2747 37.913L33.2934 14.5112ZM34.9212 22.0487C34.8905 21.1886 34.8816 20.9368 34.8741 20.4268C34.8649 19.8013 34.8591 18.7991 34.8591 16.6425H-29.1409C-29.1409 21.1968 -29.1168 22.1271 -29.038 24.3329L34.9212 22.0487ZM34.8591 16.6425C34.8591 14.4859 34.8649 13.482 34.8741 12.8523C34.8817 12.3343 34.8908 12.0741 34.9217 11.2L-29.0385 8.94262C-29.1167 11.1585 -29.1409 12.0835 -29.1409 16.6425H34.8591ZM34.8982 11.7374C34.8631 12.4093 34.7603 13.4897 34.4684 14.8578C34.1548 16.328 33.7246 17.6546 33.2934 18.7522L-26.2747 -4.64953C-27.8046 -0.755196 -28.7601 3.51511 -29.015 8.40521L34.8982 11.7374ZM33.5363 18.1139C32.929 19.7623 32.0279 21.6851 30.7172 23.6708C29.4394 25.6067 28.1738 26.9915 27.3534 27.8119L-17.9014 -17.4429C-21.2908 -14.0535 -24.425 -9.6912 -26.5176 -4.01123L33.5363 18.1139ZM27.3534 27.8119C26.5266 28.6387 25.1406 29.9039 23.2069 31.1799C21.2234 32.4888 19.2944 33.3945 17.6234 34.0083L-4.44306 -26.0672C-10.1471 -23.9721 -14.519 -20.8254 -17.9014 -17.4429L27.3534 27.8119ZM18.3524 33.7304C17.3327 34.1334 15.9997 34.5799 14.467 34.911C13.0478 35.2175 11.9254 35.3238 11.2314 35.3594L7.95368 -28.5566C2.94803 -28.2999 -1.32777 -27.3088 -5.17208 -25.7893L18.3524 33.7304ZM10.7213 35.3815C11.5879 35.3509 11.8427 35.3421 12.3549 35.3348C12.9854 35.3257 13.9902 35.3203 16.1611 35.3203V-28.6797C11.6013 -28.6797 10.6915 -28.6573 8.46385 -28.5787L10.7213 35.3815ZM-1.58945 29.9458L-1.52861 29.9864L33.9724 -23.2647L33.9116 -23.3052L-1.58945 29.9458ZM16.2219 -23.6671C10.9257 -23.6671 5.68134 -22.6239 0.788306 -20.5972L25.28 38.5311C22.4083 39.7206 19.3303 40.3329 16.2219 40.3329L16.2219 -23.6671ZM0.788306 -20.5972C-4.10473 -18.5704 -8.55068 -15.5997 -12.2957 -11.8548L32.9592 33.4001C30.7612 35.5981 28.1518 37.3416 25.28 38.5311L0.788306 -20.5972ZM-12.2957 -11.8548C-16.0407 -8.10977 -19.0113 -3.66383 -21.0381 1.22922L38.0902 25.721C36.9007 28.5927 35.1571 31.2021 32.9592 33.4001L-12.2957 -11.8548ZM-21.0381 1.22922C-23.0649 6.12228 -24.108 11.3666 -24.108 16.6628L39.892 16.6628C39.892 19.7712 39.2797 22.8492 38.0902 25.721L-21.0381 1.22922ZM-24.108 16.6628C-24.108 21.959 -23.0649 27.2034 -21.0381 32.0964L38.0902 7.60469C39.2797 10.4765 39.892 13.5544 39.892 16.6628L-24.108 16.6628ZM-21.0381 32.0964C-19.0113 36.9895 -16.0407 41.4354 -12.2957 45.1804L32.9592 -0.0744255C35.1571 2.12355 36.9007 4.73291 38.0902 7.60469L-21.0381 32.0964ZM-12.2957 45.1804C-8.5507 48.9254 -4.10476 51.8961 0.788306 53.9228L25.28 -5.20545C28.1518 -4.01591 30.7612 -2.27238 32.9592 -0.0744255L-12.2957 45.1804ZM0.788306 53.9228C5.68134 55.9496 10.9257 56.9928 16.2219 56.9928L16.2219 -7.00722C19.3303 -7.00722 22.4083 -6.39497 25.28 -5.20545L0.788306 53.9228ZM16.2219 56.9928C26.9181 56.9928 37.1762 52.7437 44.7395 45.1804L-0.515343 -0.0744246C3.92364 -4.5134 9.9442 -7.00722 16.2219 -7.00722V56.9928ZM44.7395 45.1804C52.3028 37.6171 56.5519 27.359 56.5519 16.6628H-7.44814C-7.44814 10.3851 -4.95432 4.36455 -0.515343 -0.0744246L44.7395 45.1804ZM56.5519 16.6628C56.5519 5.96664 52.3028 -4.29143 44.7395 -11.8548L-0.515343 33.4001C-4.95432 28.9611 -7.44814 22.9405 -7.44814 16.6628H56.5519ZM44.7395 -11.8548C37.1762 -19.4181 26.9181 -23.6671 16.2219 -23.6671L16.2219 40.3329C9.94422 40.3329 3.92365 37.8391 -0.515343 33.4001L44.7395 -11.8548ZM16.2219 -9.92987C30.9075 -9.92987 42.8146 1.97725 42.8146 16.6628H-21.1854C-21.1854 37.3235 -4.43874 54.0701 16.2219 54.0701V-9.92987ZM42.8146 16.6628C42.8146 31.3484 30.9075 43.2555 16.2219 43.2555V-20.7445C-4.43874 -20.7445 -21.1854 -3.99782 -21.1854 16.6628H42.8146ZM16.2219 43.2555C1.53633 43.2555 -10.3708 31.3484 -10.3708 16.6628H53.6292C53.6292 -3.99782 36.8826 -20.7445 16.2219 -20.7445V43.2555ZM-10.3708 16.6628C-10.3708 1.97725 1.53633 -9.92987 16.2219 -9.92987V54.0701C36.8826 54.0701 53.6292 37.3235 53.6292 16.6628H-10.3708ZM-5.14946 6.81243C-4.8598 -0.95863 -1.56905 -8.31488 4.03124 -13.7103L48.4352 32.3797C54.7616 26.2848 58.4789 17.9748 58.8061 9.19633L-5.14946 6.81243ZM4.03124 -13.7103C9.63153 -19.1057 17.1053 -22.1202 24.8817 -22.1202V41.8798C33.6663 41.8798 42.1089 38.4746 48.4352 32.3797L4.03124 -13.7103ZM24.8817 -22.1202C32.6581 -22.1202 40.1319 -19.1058 45.7322 -13.7103L1.32817 32.3797C7.65451 38.4746 16.0971 41.8798 24.8817 41.8798L24.8817 -22.1202ZM45.7322 -13.7103C51.3325 -8.31488 54.6232 -0.95863 54.9129 6.81243L-9.04272 9.19633C-8.7155 17.9748 -4.99814 26.2848 1.32817 32.3797L45.7322 -13.7103ZM54.9351 8.00438C54.9351 15.9751 51.7687 23.6193 46.1326 29.2553L0.877815 -15.9995C-5.48838 -9.63331 -9.06492 -0.998867 -9.06492 8.00438L54.9351 8.00438ZM46.1326 29.2553C40.4965 34.8914 32.8524 38.0578 24.8817 38.0578L24.8817 -25.9422C15.8785 -25.9422 7.24404 -22.3657 0.877815 -15.9995L46.1326 29.2553ZM24.8817 38.0578C16.9111 38.0578 9.26687 34.8914 3.63077 29.2553L48.8856 -15.9995C42.5194 -22.3657 33.8849 -25.9422 24.8817 -25.9422L24.8817 38.0578ZM3.63077 29.2553C-2.00536 23.6192 -5.17166 15.975 -5.17166 8.00438L58.8283 8.00438C58.8283 -0.998788 55.2519 -9.63326 48.8856 -15.9995L3.63077 29.2553Z" fill="#BE9F31" mask="url(#path-1-inside-1_276_857)"/>
</svg>
