<svg width="33" height="33" viewBox="0 0 33 33" fill="none" xmlns="http://www.w3.org/2000/svg">
<mask id="path-1-inside-1_121_1781" fill="white">
<path d="M16.7756 0.137695C12.3687 0.137695 11.8185 0.157973 10.0881 0.235027C8.36051 0.316136 7.18442 0.587853 6.15027 0.989346C5.08368 1.403 4.17796 1.9586 3.27629 2.86027C2.37462 3.76194 1.81767 4.66631 1.40536 5.73425C1.00387 6.7684 0.7308 7.94449 0.651042 9.67212C0.569933 11.4025 0.553711 11.9527 0.553711 16.3596C0.553711 20.7666 0.573988 21.3168 0.651042 23.0471C0.732152 24.7734 1.00387 25.9508 1.40536 26.985C1.81266 28.0676 2.45113 29.0483 3.27629 29.8589C4.08641 30.6847 5.06732 31.3232 6.15027 31.7299C7.18577 32.13 8.36186 32.4044 10.0881 32.4842C11.8185 32.5653 12.3687 32.5815 16.7756 32.5815C21.1826 32.5815 21.7328 32.5612 23.4631 32.4842C25.1894 32.4031 26.3668 32.13 27.401 31.7299C28.4833 31.3221 29.464 30.6837 30.275 29.8589C31.101 29.049 31.7396 28.0681 32.1459 26.985C32.546 25.9508 32.8204 24.7734 32.9002 23.0471C32.9813 21.3168 32.9975 20.7666 32.9975 16.3596C32.9975 11.9527 32.9773 11.4025 32.9002 9.67212C32.8191 7.94584 32.546 6.76705 32.1459 5.73425C31.7384 4.65174 31.0999 3.671 30.275 2.86027C29.4654 2.03382 28.4843 1.39515 27.401 0.989346C26.3668 0.587853 25.1894 0.314784 23.4631 0.235027C21.7328 0.153917 21.1826 0.137695 16.7756 0.137695ZM16.7756 3.05764C21.1055 3.05764 21.6219 3.07927 23.332 3.15362C24.9136 3.22797 25.772 3.49022 26.3425 3.71463C27.1022 4.00797 27.6402 4.35945 28.2107 4.92586C28.7771 5.49363 29.1286 6.03301 29.422 6.79273C29.6437 7.3632 29.9086 8.22161 29.9803 9.80325C30.0573 11.5147 30.0749 12.0284 30.0749 16.3596C30.0749 20.6909 30.0546 21.2059 29.9748 22.916C29.8924 24.4976 29.6288 25.356 29.4057 25.9265C29.1418 26.6305 28.727 27.2681 28.1904 27.7947C27.6661 28.3318 27.0289 28.7455 26.3249 29.0059C25.7572 29.2276 24.8852 29.4926 23.3036 29.5642C21.5814 29.6413 21.0744 29.6589 16.7351 29.6589C12.3944 29.6589 11.8874 29.6386 10.1665 29.5588C8.58356 29.4764 7.71163 29.2128 7.14386 28.9897C6.43943 28.7291 5.80241 28.3138 5.27969 27.7744C4.73705 27.2536 4.32086 26.6155 4.06305 25.9089C3.84 25.3411 3.57775 24.4692 3.49528 22.8876C3.43445 21.1843 3.41282 20.6584 3.41282 16.3393C3.41282 12.0189 3.43445 11.4917 3.49528 9.7681C3.57775 8.18647 3.84 7.31589 4.06305 6.74812C4.34693 5.97758 4.71058 5.45037 5.27969 4.88125C5.84611 4.31484 6.37467 3.94984 7.14386 3.66731C7.71163 3.44291 8.56463 3.1793 10.1463 3.09819C11.8698 3.03736 12.3768 3.01708 16.7148 3.01708L16.7756 3.05764ZM16.7756 8.02965C15.6817 8.02965 14.5985 8.24512 13.5879 8.66373C12.5773 9.08235 11.659 9.69593 10.8855 10.4694C10.1119 11.2429 9.49837 12.1612 9.07975 13.1719C8.66113 14.1825 8.44567 15.2657 8.44567 16.3596C8.44567 17.4535 8.66113 18.5367 9.07975 19.5473C9.49837 20.558 10.1119 21.4763 10.8855 22.2498C11.659 23.0233 12.5773 23.6369 13.5879 24.0555C14.5985 24.4741 15.6817 24.6896 16.7756 24.6896C18.9849 24.6896 21.1036 23.8119 22.6658 22.2498C24.228 20.6876 25.1056 18.5688 25.1056 16.3596C25.1056 14.1504 24.228 12.0316 22.6658 10.4694C21.1036 8.90727 18.9849 8.02965 16.7756 8.02965ZM16.7756 21.7669C13.7881 21.7669 11.3683 19.3471 11.3683 16.3596C11.3683 13.3721 13.7881 10.9523 16.7756 10.9523C19.7632 10.9523 22.1829 13.3721 22.1829 16.3596C22.1829 19.3471 19.7632 21.7669 16.7756 21.7669ZM27.382 7.70116C27.3633 8.20488 27.15 8.68172 26.787 9.03145C26.4239 9.38118 25.9395 9.57658 25.4354 9.57658C24.9313 9.57658 24.4469 9.38118 24.0839 9.03145C23.7209 8.68172 23.5076 8.20488 23.4888 7.70116C23.4888 7.18488 23.6939 6.68975 24.0589 6.32469C24.424 5.95962 24.9191 5.75453 25.4354 5.75453C25.9517 5.75453 26.4468 5.95962 26.8119 6.32469C27.177 6.68975 27.382 7.18488 27.382 7.70116Z"/>
</mask>
<path d="M16.7756 0.137695C12.3687 0.137695 11.8185 0.157973 10.0881 0.235027C8.36051 0.316136 7.18442 0.587853 6.15027 0.989346C5.08368 1.403 4.17796 1.9586 3.27629 2.86027C2.37462 3.76194 1.81767 4.66631 1.40536 5.73425C1.00387 6.7684 0.7308 7.94449 0.651042 9.67212C0.569933 11.4025 0.553711 11.9527 0.553711 16.3596C0.553711 20.7666 0.573988 21.3168 0.651042 23.0471C0.732152 24.7734 1.00387 25.9508 1.40536 26.985C1.81266 28.0676 2.45113 29.0483 3.27629 29.8589C4.08641 30.6847 5.06732 31.3232 6.15027 31.7299C7.18577 32.13 8.36186 32.4044 10.0881 32.4842C11.8185 32.5653 12.3687 32.5815 16.7756 32.5815C21.1826 32.5815 21.7328 32.5612 23.4631 32.4842C25.1894 32.4031 26.3668 32.13 27.401 31.7299C28.4833 31.3221 29.464 30.6837 30.275 29.8589C31.101 29.049 31.7396 28.0681 32.1459 26.985C32.546 25.9508 32.8204 24.7734 32.9002 23.0471C32.9813 21.3168 32.9975 20.7666 32.9975 16.3596C32.9975 11.9527 32.9773 11.4025 32.9002 9.67212C32.8191 7.94584 32.546 6.76705 32.1459 5.73425C31.7384 4.65174 31.0999 3.671 30.275 2.86027C29.4654 2.03382 28.4843 1.39515 27.401 0.989346C26.3668 0.587853 25.1894 0.314784 23.4631 0.235027C21.7328 0.153917 21.1826 0.137695 16.7756 0.137695ZM16.7756 3.05764C21.1055 3.05764 21.6219 3.07927 23.332 3.15362C24.9136 3.22797 25.772 3.49022 26.3425 3.71463C27.1022 4.00797 27.6402 4.35945 28.2107 4.92586C28.7771 5.49363 29.1286 6.03301 29.422 6.79273C29.6437 7.3632 29.9086 8.22161 29.9803 9.80325C30.0573 11.5147 30.0749 12.0284 30.0749 16.3596C30.0749 20.6909 30.0546 21.2059 29.9748 22.916C29.8924 24.4976 29.6288 25.356 29.4057 25.9265C29.1418 26.6305 28.727 27.2681 28.1904 27.7947C27.6661 28.3318 27.0289 28.7455 26.3249 29.0059C25.7572 29.2276 24.8852 29.4926 23.3036 29.5642C21.5814 29.6413 21.0744 29.6589 16.7351 29.6589C12.3944 29.6589 11.8874 29.6386 10.1665 29.5588C8.58356 29.4764 7.71163 29.2128 7.14386 28.9897C6.43943 28.7291 5.80241 28.3138 5.27969 27.7744C4.73705 27.2536 4.32086 26.6155 4.06305 25.9089C3.84 25.3411 3.57775 24.4692 3.49528 22.8876C3.43445 21.1843 3.41282 20.6584 3.41282 16.3393C3.41282 12.0189 3.43445 11.4917 3.49528 9.7681C3.57775 8.18647 3.84 7.31589 4.06305 6.74812C4.34693 5.97758 4.71058 5.45037 5.27969 4.88125C5.84611 4.31484 6.37467 3.94984 7.14386 3.66731C7.71163 3.44291 8.56463 3.1793 10.1463 3.09819C11.8698 3.03736 12.3768 3.01708 16.7148 3.01708L16.7756 3.05764ZM16.7756 8.02965C15.6817 8.02965 14.5985 8.24512 13.5879 8.66373C12.5773 9.08235 11.659 9.69593 10.8855 10.4694C10.1119 11.2429 9.49837 12.1612 9.07975 13.1719C8.66113 14.1825 8.44567 15.2657 8.44567 16.3596C8.44567 17.4535 8.66113 18.5367 9.07975 19.5473C9.49837 20.558 10.1119 21.4763 10.8855 22.2498C11.659 23.0233 12.5773 23.6369 13.5879 24.0555C14.5985 24.4741 15.6817 24.6896 16.7756 24.6896C18.9849 24.6896 21.1036 23.8119 22.6658 22.2498C24.228 20.6876 25.1056 18.5688 25.1056 16.3596C25.1056 14.1504 24.228 12.0316 22.6658 10.4694C21.1036 8.90727 18.9849 8.02965 16.7756 8.02965ZM16.7756 21.7669C13.7881 21.7669 11.3683 19.3471 11.3683 16.3596C11.3683 13.3721 13.7881 10.9523 16.7756 10.9523C19.7632 10.9523 22.1829 13.3721 22.1829 16.3596C22.1829 19.3471 19.7632 21.7669 16.7756 21.7669ZM27.382 7.70116C27.3633 8.20488 27.15 8.68172 26.787 9.03145C26.4239 9.38118 25.9395 9.57658 25.4354 9.57658C24.9313 9.57658 24.4469 9.38118 24.0839 9.03145C23.7209 8.68172 23.5076 8.20488 23.4888 7.70116C23.4888 7.18488 23.6939 6.68975 24.0589 6.32469C24.424 5.95962 24.9191 5.75453 25.4354 5.75453C25.9517 5.75453 26.4468 5.95962 26.8119 6.32469C27.177 6.68975 27.382 7.18488 27.382 7.70116Z" fill="#EA4235"/>
<path d="M10.0881 0.235027L8.66455 -31.7333L8.62599 -31.7316L8.58744 -31.7298L10.0881 0.235027ZM6.15027 0.989346L17.7212 30.8241L17.7316 30.8201L6.15027 0.989346ZM1.40536 5.73425L31.2361 17.3156L31.247 17.2876L31.2578 17.2596L1.40536 5.73425ZM0.651042 9.67212L32.6159 11.1705L32.6165 11.1592L32.617 11.1479L0.651042 9.67212ZM0.651042 23.0471L-31.3173 24.4707L-31.3155 24.5098L-31.3137 24.549L0.651042 23.0471ZM1.40536 26.985L31.3559 15.7172L31.2968 15.5601L31.2361 15.4036L1.40536 26.985ZM3.27629 29.8589L26.1187 7.44855L25.9119 7.23779L25.7013 7.03089L3.27629 29.8589ZM6.15027 31.7299L17.6846 1.88092L17.542 1.82583L17.3989 1.7721L6.15027 31.7299ZM10.0881 32.4842L11.5865 0.519284L11.5758 0.51878L11.565 0.518285L10.0881 32.4842ZM23.4631 32.4842L24.8867 64.4525L24.9258 64.4508L24.965 64.4489L23.4631 32.4842ZM27.401 31.7299L16.1186 1.78478L15.9858 1.8348L15.8535 1.88599L27.401 31.7299ZM30.275 29.8589L7.87147 7.00979L7.66276 7.21443L7.45782 7.42284L30.275 29.8589ZM32.1459 26.985L2.30201 15.4375L2.24257 15.5911L2.18472 15.7454L32.1459 26.985ZM32.9002 23.0471L0.935299 21.5487L0.934796 21.5595L0.9343 21.5702L32.9002 23.0471ZM32.9002 9.67212L64.8685 8.24853L64.8668 8.20939L64.8649 8.17026L32.9002 9.67212ZM32.1459 5.73425L2.19743 17.0077L2.25157 17.1515L2.3071 17.2948L32.1459 5.73425ZM30.275 2.86027L7.41476 25.2525L7.62817 25.4704L7.84568 25.6841L30.275 2.86027ZM27.401 0.989346L15.8196 30.8201L15.9975 30.8891L16.1761 30.956L27.401 0.989346ZM23.4631 0.235027L21.9648 32.1999L21.9755 32.2004L21.9862 32.2009L23.4631 0.235027ZM16.7756 3.05764L-0.974904 29.6832L7.08672 35.0576H16.7756V3.05764ZM23.332 3.15362L24.8346 -28.8111L24.7783 -28.8137L24.722 -28.8162L23.332 3.15362ZM26.3425 3.71463L14.6285 33.4935L14.7222 33.5304L14.816 33.5666L26.3425 3.71463ZM28.2107 4.92586L50.8651 -17.6746L50.8113 -17.7285L50.7573 -17.7821L28.2107 4.92586ZM29.422 6.79273L-0.430023 18.3192L-0.417472 18.3517L-0.40485 18.3842L29.422 6.79273ZM29.9803 9.80325L61.9479 8.36395L61.9475 8.35516L29.9803 9.80325ZM29.9748 22.916L61.9314 24.5821L61.936 24.4945L61.9401 24.4068L29.9748 22.916ZM29.4057 25.9265L-0.397162 14.2737L-0.479167 14.4834L-0.558212 14.6943L29.4057 25.9265ZM28.1904 27.7947L5.77715 4.95516L5.53245 5.1953L5.29294 5.44063L28.1904 27.7947ZM26.3249 29.0059L15.2223 -1.00626L14.953 -0.906637L14.6855 -0.802202L26.3249 29.0059ZM23.3036 29.5642L24.7339 61.5323L24.7428 61.5319L24.7517 61.5315L23.3036 29.5642ZM10.1665 29.5588L8.50185 61.5155L8.59342 61.5203L8.68502 61.5245L10.1665 29.5588ZM7.14386 28.9897L18.8447 -0.794332L18.5475 -0.911094L18.248 -1.0219L7.14386 28.9897ZM5.27969 27.7744L28.259 5.50446L27.8557 5.08835L27.4377 4.6871L5.27969 27.7744ZM4.06305 25.9089L34.1244 14.9401L33.9902 14.5724L33.8471 14.208L4.06305 25.9089ZM3.49528 22.8876L-28.4843 24.0297L-28.475 24.2918L-28.4613 24.5537L3.49528 22.8876ZM3.49528 9.7681L-28.4613 8.10199L-28.4753 8.37059L-28.4848 8.63939L3.49528 9.7681ZM4.06305 6.74812L33.8471 18.449L33.972 18.1311L34.09 17.8107L4.06305 6.74812ZM7.14386 3.66731L18.1771 33.7051L18.5433 33.5706L18.9061 33.4272L7.14386 3.66731ZM10.1463 3.09819L9.01756 -28.8819L8.76239 -28.8729L8.5074 -28.8598L10.1463 3.09819ZM16.7148 3.01708L34.4653 -23.6084L26.4037 -28.9829H16.7148V3.01708ZM16.7756 8.02965V40.0297V8.02965ZM8.44567 16.3596H-23.5543H8.44567ZM16.7756 24.6896V-7.31044V24.6896ZM27.382 7.70116L59.3598 8.89311L59.382 8.29734V7.70116L27.382 7.70116ZM25.4354 9.57658V-22.4234V9.57658ZM23.4888 7.70116L-8.51121 7.70116V8.29734L-8.48901 8.89311L23.4888 7.70116ZM25.4354 5.75453V37.7545V5.75453ZM16.7756 -31.8623C12.1847 -31.8623 11.0905 -31.8413 8.66455 -31.7333L11.5117 32.2033C12.3052 32.168 12.5097 32.1604 12.9481 32.1532C13.5581 32.1433 14.553 32.1377 16.7756 32.1377V-31.8623ZM8.58744 -31.7298C3.87959 -31.5087 -0.760262 -30.6548 -5.43107 -28.8414L17.7316 30.8201C16.6183 31.2523 15.4043 31.6159 14.154 31.8668C12.9645 32.1054 12.0618 32.1776 11.5888 32.1998L8.58744 -31.7298ZM-5.42063 -28.8454C-10.3458 -26.9353 -15.0937 -24.0246 -19.3511 -19.7671L25.9037 25.4877C24.8484 26.543 23.5272 27.6506 21.9391 28.6702C20.3584 29.6849 18.8889 30.3713 17.7212 30.8241L-5.42063 -28.8454ZM-19.3511 -19.7671C-23.585 -15.5333 -26.5192 -10.7846 -28.4471 -5.79105L31.2578 17.2596C30.7952 18.4578 30.0999 19.9443 29.0785 21.5338C28.054 23.1281 26.9465 24.4449 25.9037 25.4877L-19.3511 -19.7671ZM-28.4254 -5.84709C-30.2324 -1.19274 -31.0958 3.45046 -31.3149 8.19639L32.617 11.1479C32.5944 11.6363 32.5211 12.5493 32.2807 13.746C32.0283 15.0024 31.6639 16.2136 31.2361 17.3156L-28.4254 -5.84709ZM-31.3139 8.17377C-31.4313 10.6784 -31.4463 11.8375 -31.4463 16.3596H32.5537C32.5537 14.1188 32.5584 13.1275 32.568 12.5141C32.5745 12.0985 32.5813 11.9099 32.6159 11.1705L-31.3139 8.17377ZM-31.4463 16.3596C-31.4463 20.9505 -31.4253 22.0447 -31.3173 24.4707L32.6194 21.6235C32.584 20.83 32.5764 20.6255 32.5693 20.1872C32.5593 19.5771 32.5537 18.5822 32.5537 16.3596H-31.4463ZM-31.3137 24.549C-31.0927 29.2519 -30.2396 33.8932 -28.4254 38.5663L31.2361 15.4036C31.6697 16.5206 32.0329 17.7347 32.2831 18.9823C32.5213 20.1697 32.5935 21.0713 32.6158 21.5452L-31.3137 24.549ZM-28.5452 38.2528C-26.4996 43.6901 -23.293 48.6159 -19.1487 52.687L25.7013 7.03089C28.1952 9.4808 30.1249 12.4451 31.3559 15.7172L-28.5452 38.2528ZM-19.5661 52.2693C-15.4879 56.4261 -10.55 59.6406 -5.09838 61.6876L17.3989 1.7721C20.6846 3.00583 23.6607 4.94324 26.1187 7.44855L-19.5661 52.2693ZM-5.38405 61.5788C-0.781284 63.3574 3.83719 64.2295 8.61125 64.4501L11.565 0.518285C12.0652 0.541395 12.9794 0.615933 14.171 0.855624C15.4201 1.1069 16.6126 1.46668 17.6846 1.88092L-5.38405 61.5788ZM8.58978 64.4491C11.0945 64.5665 12.2535 64.5815 16.7756 64.5815V0.581516C14.5348 0.581516 13.5436 0.576828 12.9301 0.567204C12.5145 0.560683 12.3259 0.553945 11.5865 0.519284L8.58978 64.4491ZM16.7756 64.5815C21.3665 64.5815 22.4607 64.5605 24.8867 64.4525L22.0395 0.515867C21.2461 0.5512 21.0416 0.558846 20.6032 0.565969C19.9932 0.575882 18.9982 0.581516 16.7756 0.581516V64.5815ZM24.965 64.4489C29.6934 64.2268 34.3163 63.366 38.9484 61.5737L15.8535 1.88599C16.9477 1.46262 18.1478 1.10276 19.3904 0.853193C20.5743 0.615401 21.4774 0.54218 21.9612 0.519448L24.965 64.4489ZM38.6833 61.6749C44.1098 59.6304 49.0264 56.4298 53.0921 52.295L7.45782 7.42284C9.90163 4.93753 12.8569 3.01369 16.1186 1.78478L38.6833 61.6749ZM52.6784 52.7081C56.8411 48.6266 60.0594 43.6829 62.107 38.2246L2.18472 15.7454C3.41973 12.4532 5.36079 9.4715 7.87147 7.00979L52.6784 52.7081ZM61.9898 38.5324C63.7756 33.9169 64.6459 29.2904 64.8661 24.524L0.9343 21.5702C0.957369 21.0709 1.03177 20.1575 1.27132 18.9664C1.52244 17.7177 1.88305 16.5203 2.30201 15.4375L61.9898 38.5324ZM64.8651 24.5454C64.9825 22.0408 64.9975 20.8817 64.9975 16.3596H0.997531C0.997531 18.6004 0.992844 19.5917 0.98322 20.2051C0.976699 20.6207 0.969961 20.8093 0.935299 21.5487L64.8651 24.5454ZM64.9975 16.3596C64.9975 11.7687 64.9766 10.6745 64.8685 8.24853L0.931882 11.0957C0.967216 11.8892 0.974862 12.0937 0.981985 12.532C0.991898 13.1421 0.997531 14.137 0.997531 16.3596H64.9975ZM64.8649 8.17026C64.6431 3.44949 63.7842 -1.18145 61.9847 -5.82632L2.3071 17.2948C1.87899 16.1898 1.51829 14.9848 1.26889 13.7428C1.03124 12.5592 0.958154 11.6569 0.935464 11.174L64.8649 8.17026ZM62.0943 -5.53916C60.0492 -10.9723 56.8448 -15.8946 52.7042 -19.9636L7.84568 25.6841C5.35507 23.2366 3.42762 20.2757 2.19743 17.0077L62.0943 -5.53916ZM53.1352 -19.5319C49.0482 -23.7043 44.0952 -26.9286 38.6258 -28.9774L16.1761 30.956C12.8735 29.7189 9.88264 27.7719 7.41476 25.2525L53.1352 -19.5319ZM38.9823 -28.8414C34.3257 -30.6492 29.681 -31.5118 24.94 -31.7309L21.9862 32.2009C21.4968 32.1783 20.5849 32.1049 19.3904 31.865C18.1366 31.6132 16.9252 31.2493 15.8196 30.8201L38.9823 -28.8414ZM24.9615 -31.7299C22.4568 -31.8473 21.2978 -31.8623 16.7756 -31.8623V32.1377C19.0164 32.1377 20.0077 32.1424 20.6211 32.152C21.0367 32.1585 21.2253 32.1653 21.9648 32.1999L24.9615 -31.7299ZM16.7756 35.0576C18.9532 35.0576 19.919 35.0636 20.5042 35.0733C20.9298 35.0804 21.1224 35.0878 21.942 35.1234L24.722 -28.8162C22.357 -28.919 21.3259 -28.9424 16.7756 -28.9424V35.0576ZM21.8294 35.1183C21.1204 35.085 19.9862 34.9814 18.5563 34.6771C17.015 34.3491 15.6692 33.9029 14.6285 33.4935L38.0565 -26.0643C34.1762 -27.5906 29.8642 -28.5746 24.8346 -28.8111L21.8294 35.1183ZM14.816 33.5666C13.4958 33.0568 11.7784 32.2628 9.91854 31.0549C8.05974 29.8477 6.64568 28.6084 5.66416 27.6339L50.7573 -17.7821C47.0724 -21.4408 42.7899 -24.2373 37.869 -26.1373L14.816 33.5666ZM5.55635 27.5263C4.55039 26.5179 3.29609 25.0863 2.08166 23.2163C0.869425 21.3498 0.0763219 19.6306 -0.430023 18.3192L59.2739 -4.73374C57.3833 -9.63027 54.5859 -13.9449 50.8651 -17.6746L5.55635 27.5263ZM-0.40485 18.3842C-0.773195 17.4364 -1.21335 16.1228 -1.54187 14.5789C-1.84728 13.1436 -1.95336 11.9932 -1.98696 11.2513L61.9475 8.35516C61.7151 3.22567 60.7038 -1.05463 59.2488 -4.79873L-0.40485 18.3842ZM-1.98736 11.2426C-1.95266 12.0133 -1.94599 12.198 -1.93951 12.6068C-1.93011 13.1987 -1.92512 14.1645 -1.92512 16.3596H62.0749C62.0749 11.873 62.0574 10.7958 61.9479 8.36395L-1.98736 11.2426ZM-1.92512 16.3596C-1.92512 18.5487 -1.93083 19.5022 -1.9406 20.0764C-1.94726 20.4681 -1.95368 20.6378 -1.9904 21.4251L61.9401 24.4068C62.0538 21.9681 62.0749 20.8833 62.0749 16.3596H-1.92512ZM-1.98175 21.2498C-1.94587 20.5616 -1.84011 19.4588 -1.54058 18.0671C-1.21766 16.5668 -0.784376 15.264 -0.397162 14.2737L59.2086 37.5793C60.6861 33.8004 61.6714 29.5689 61.9314 24.5821L-1.98175 21.2498ZM-0.558212 14.6943C0.817468 11.0244 2.97989 7.70022 5.77715 4.95516L50.6037 50.6342C54.4742 46.836 57.4662 42.2365 59.3697 37.1587L-0.558212 14.6943ZM5.29294 5.44063C8.08374 2.58198 11.4754 0.379851 15.2223 -1.00626L37.4275 59.0181C42.5823 57.1112 47.2485 54.0816 51.0879 50.1488L5.29294 5.44063ZM14.6855 -0.802202C15.7289 -1.2096 17.0592 -1.64599 18.5742 -1.96634C19.9872 -2.26513 21.12 -2.36966 21.8555 -2.40298L24.7517 61.5315C29.8091 61.3024 34.1249 60.3133 37.9643 58.8141L14.6855 -0.802202ZM21.8733 -2.40378C21.0913 -2.36879 20.9045 -2.36205 20.4934 -2.35553C19.9005 -2.34613 18.9343 -2.34113 16.7351 -2.34113V61.6589C21.2337 61.6589 22.2984 61.6412 24.7339 61.5323L21.8733 -2.40378ZM16.7351 -2.34113C14.5411 -2.34113 13.5872 -2.34684 13.0124 -2.35662C12.6184 -2.36332 12.4475 -2.3698 11.6481 -2.40685L8.68502 61.5245C11.1269 61.6377 12.1979 61.6589 16.7351 61.6589V-2.34113ZM11.8312 -2.39784C12.5108 -2.36244 13.5953 -2.25863 14.9653 -1.96571C16.4367 -1.65111 17.759 -1.22087 18.8447 -0.794332L-4.55701 58.7738C-0.680924 60.2965 3.58916 61.2596 8.50185 61.5155L11.8312 -2.39784ZM18.248 -1.0219C22.031 0.377779 25.4519 2.60796 28.259 5.50446L-17.6996 50.0444C-13.8471 54.0196 -9.15214 57.0804 -3.96032 59.0013L18.248 -1.0219ZM27.4377 4.6871C30.4201 7.54949 32.7075 11.0568 34.1244 14.9401L-25.9983 36.8777C-24.0658 42.1741 -20.946 46.9578 -16.8783 50.8617L27.4377 4.6871ZM33.8471 14.208C34.2809 15.3122 34.7104 16.6395 35.0231 18.1062C35.3142 19.4717 35.4169 20.5502 35.4519 21.2215L-28.4613 24.5537C-28.2067 29.4376 -27.2531 33.7099 -25.721 37.6098L33.8471 14.208ZM35.4749 21.7454C35.4442 20.8854 35.4353 20.6336 35.4278 20.1236C35.4186 19.4981 35.4128 18.4959 35.4128 16.3393H-28.5872C-28.5872 20.8936 -28.5631 21.8238 -28.4843 24.0297L35.4749 21.7454ZM35.4128 16.3393C35.4128 14.1827 35.4186 13.1788 35.4278 12.5491C35.4354 12.0311 35.4445 11.7709 35.4754 10.8968L-28.4848 8.63939C-28.563 10.8553 -28.5872 11.7803 -28.5872 16.3393H35.4128ZM35.4519 11.4342C35.4169 12.1061 35.314 13.1865 35.0222 14.5546C34.7085 16.0248 34.2783 17.3514 33.8471 18.449L-25.721 -4.95275C-27.2509 -1.05842 -28.2064 3.21189 -28.4613 8.10199L35.4519 11.4342ZM34.09 17.8107C33.4827 19.4591 32.5816 21.3819 31.2709 23.3676C29.9931 25.3034 28.7275 26.6883 27.9071 27.5087L-17.3477 -17.7462C-20.7371 -14.3568 -23.8713 -9.99442 -25.9639 -4.31445L34.09 17.8107ZM27.9071 27.5087C27.0803 28.3355 25.6943 29.6007 23.7606 30.8767C21.7771 32.1856 19.8481 33.0913 18.1771 33.7051L-3.88935 -26.3705C-9.59334 -24.2753 -13.9653 -21.1286 -17.3477 -17.7462L27.9071 27.5087ZM18.9061 33.4272C17.8864 33.8302 16.5534 34.2767 15.0207 34.6077C13.6015 34.9143 12.4791 35.0206 11.7851 35.0562L8.5074 -28.8598C3.50175 -28.6031 -0.774061 -27.612 -4.61837 -26.0926L18.9061 33.4272ZM11.275 35.0783C12.1416 35.0477 12.3964 35.0389 12.9086 35.0315C13.5391 35.0225 14.5439 35.0171 16.7148 35.0171V-28.9829C12.155 -28.9829 11.2452 -28.9605 9.01756 -28.8819L11.275 35.0783ZM-1.03574 29.6426L-0.974904 29.6832L34.5261 -23.5679L34.4653 -23.6084L-1.03574 29.6426ZM16.7756 -23.9703C11.4794 -23.9703 6.23505 -22.9272 1.34202 -20.9004L25.8338 38.2279C22.962 39.4174 19.884 40.0297 16.7756 40.0297V-23.9703ZM1.34202 -20.9004C-3.55102 -18.8736 -7.99697 -15.903 -11.742 -12.158L33.5129 33.0969C31.3149 35.2948 28.7055 37.0384 25.8338 38.2279L1.34202 -20.9004ZM-11.742 -12.158C-15.4869 -8.41299 -18.4576 -3.96705 -20.4844 0.926001L38.6439 25.4177C37.4544 28.2895 35.7108 30.8989 33.5129 33.0969L-11.742 -12.158ZM-20.4844 0.926001C-22.5112 5.81905 -23.5543 11.0634 -23.5543 16.3596H40.4457C40.4457 19.468 39.8334 22.546 38.6439 25.4177L-20.4844 0.926001ZM-23.5543 16.3596C-23.5543 21.6558 -22.5112 26.9002 -20.4844 31.7932L38.6439 7.30147C39.8334 10.1732 40.4457 13.2512 40.4457 16.3596H-23.5543ZM-20.4844 31.7932C-18.4576 36.6863 -15.4869 41.1322 -11.742 44.8772L33.5129 -0.377648C35.7108 1.82032 37.4544 4.42969 38.6439 7.30147L-20.4844 31.7932ZM-11.742 44.8772C-7.99699 48.6222 -3.55105 51.5928 1.34202 53.6196L25.8338 -5.50867C28.7056 -4.31913 31.3149 -2.57561 33.5129 -0.377648L-11.742 44.8772ZM1.34202 53.6196C6.23505 55.6464 11.4794 56.6896 16.7756 56.6896V-7.31044C19.884 -7.31044 22.962 -6.69819 25.8338 -5.50867L1.34202 53.6196ZM16.7756 56.6896C27.4718 56.6896 37.7299 52.4405 45.2932 44.8772L0.0383683 -0.377647C4.47735 -4.81663 10.4979 -7.31044 16.7756 -7.31044V56.6896ZM45.2932 44.8772C52.8565 37.3139 57.1056 27.0558 57.1056 16.3596H-6.89443C-6.89443 10.0819 -4.40061 4.06133 0.0383683 -0.377647L45.2932 44.8772ZM57.1056 16.3596C57.1056 5.66342 52.8565 -4.59466 45.2932 -12.158L0.0383683 33.0969C-4.40061 28.6579 -6.89443 22.6373 -6.89443 16.3596H57.1056ZM45.2932 -12.158C37.7299 -19.7213 27.4718 -23.9703 16.7756 -23.9703V40.0297C10.4979 40.0297 4.47736 37.5359 0.0383683 33.0969L45.2932 -12.158ZM16.7756 -10.2331C31.4612 -10.2331 43.3683 1.67403 43.3683 16.3596H-20.6317C-20.6317 37.0203 -3.88503 53.7669 16.7756 53.7669V-10.2331ZM43.3683 16.3596C43.3683 31.0452 31.4612 42.9523 16.7756 42.9523V-21.0477C-3.88503 -21.0477 -20.6317 -4.30104 -20.6317 16.3596H43.3683ZM16.7756 42.9523C2.09004 42.9523 -9.81708 31.0452 -9.81708 16.3596H54.1829C54.1829 -4.30104 37.4363 -21.0477 16.7756 -21.0477V42.9523ZM-9.81708 16.3596C-9.81708 1.67403 2.09004 -10.2331 16.7756 -10.2331V53.7669C37.4363 53.7669 54.1829 37.0203 54.1829 16.3596H-9.81708ZM-4.59575 6.50921C-4.30609 -1.26185 -1.01534 -8.6181 4.58495 -14.0135L48.989 32.0764C55.3153 25.9815 59.0326 17.6716 59.3598 8.89311L-4.59575 6.50921ZM4.58495 -14.0135C10.1852 -19.409 17.659 -22.4234 25.4354 -22.4234V41.5766C34.22 41.5766 42.6626 38.1713 48.989 32.0764L4.58495 -14.0135ZM25.4354 -22.4234C33.2118 -22.4234 40.6856 -19.409 46.2859 -14.0135L1.88188 32.0764C8.20822 38.1714 16.6509 41.5766 25.4354 41.5766V-22.4234ZM46.2859 -14.0135C51.8862 -8.6181 55.1769 -1.26185 55.4666 6.50921L-8.48901 8.89311C-8.16179 17.6716 -4.44443 25.9815 1.88188 32.0764L46.2859 -14.0135ZM55.4888 7.70116C55.4888 15.6719 52.3224 23.316 46.6864 28.9521L1.43153 -16.3027C-4.93467 -9.93653 -8.51121 -1.30209 -8.51121 7.70116L55.4888 7.70116ZM46.6864 28.9521C41.0503 34.5882 33.4061 37.7545 25.4354 37.7545V-26.2455C16.4322 -26.2455 7.79775 -22.669 1.43153 -16.3027L46.6864 28.9521ZM25.4354 37.7545C17.4648 37.7545 9.82058 34.5882 4.18448 28.9521L49.4393 -16.3027C43.0731 -22.669 34.4386 -26.2455 25.4354 -26.2455V37.7545ZM4.18448 28.9521C-1.45165 23.316 -4.61795 15.6718 -4.61795 7.70116L59.382 7.70116C59.382 -1.30201 55.8056 -9.93648 49.4393 -16.3027L4.18448 28.9521Z" fill="#EA4235" mask="url(#path-1-inside-1_121_1781)"/>
</svg>
