<svg width="19" height="18" viewBox="0 0 19 18" fill="none" xmlns="http://www.w3.org/2000/svg">
<path d="M15.8102 15.2182H13.1813V11.0988C13.1813 10.1165 13.1613 8.85233 11.8114 8.85233C10.4407 8.85233 10.2314 9.9212 10.2314 11.0263V15.2182H7.60249V6.74715H10.1278V7.90182H10.1618C10.5147 7.23609 11.3727 6.53337 12.6546 6.53337C15.3183 6.53337 15.8109 8.28646 15.8109 10.5684V15.2182H15.8102ZM4.63333 5.58804C4.43278 5.58813 4.23418 5.54868 4.04889 5.47193C3.86361 5.39519 3.69528 5.28265 3.55354 5.14078C3.4118 4.9989 3.29943 4.83046 3.22286 4.6451C3.1463 4.45974 3.10703 4.2611 3.10733 4.06056C3.10747 3.75859 3.19716 3.46346 3.36504 3.21247C3.53292 2.96148 3.77146 2.76591 4.05049 2.65049C4.32952 2.53507 4.63651 2.50498 4.93265 2.56403C5.22878 2.62309 5.50074 2.76863 5.71416 2.98225C5.92757 3.19587 6.07285 3.46798 6.13162 3.76417C6.19038 4.06036 6.16 4.36732 6.04431 4.64624C5.92862 4.92516 5.73282 5.16351 5.48166 5.33115C5.23051 5.49878 4.93529 5.58818 4.63333 5.58804ZM5.95147 15.2182H3.31518V6.74715H5.95147V15.2182ZM17.1254 0.0898438H1.99556C1.27139 0.0898438 0.685547 0.662372 0.685547 1.36879V16.5637C0.685547 17.2709 1.27139 17.8427 1.99556 17.8427H17.1232C17.8466 17.8427 18.4384 17.2709 18.4384 16.5637V1.36879C18.4384 0.662372 17.8466 0.0898438 17.1232 0.0898438H17.1254Z" fill="#CDCDCD"/>
</svg>
