<svg width="39" height="39" viewBox="0 0 39 39" fill="none" xmlns="http://www.w3.org/2000/svg">
<path d="M33.094 33.0933H27.3433V24.0821C27.3433 21.9333 27.2996 19.1679 24.3465 19.1679C21.3482 19.1679 20.8903 21.5061 20.8903 23.9235V33.0933H15.1396V14.5629H20.6638V17.0887H20.7382C21.51 15.6324 23.387 14.0952 26.1912 14.0952C32.0179 14.0952 33.0956 17.9301 33.0956 22.9219V33.0933H33.094ZM8.64456 12.0273C8.20586 12.0275 7.77142 11.9412 7.36611 11.7733C6.96081 11.6054 6.59258 11.3593 6.28253 11.0489C5.97247 10.7386 5.72666 10.3701 5.55917 9.96462C5.39168 9.55915 5.30579 9.12463 5.30643 8.68593C5.30675 8.02539 5.50294 7.37978 5.87018 6.83074C6.23742 6.2817 6.75923 5.85389 7.36961 5.60141C7.97999 5.34893 8.65153 5.28311 9.29932 5.41229C9.9471 5.54147 10.542 5.85984 11.0089 6.32714C11.4757 6.79444 11.7935 7.38968 11.9221 8.03758C12.0506 8.68549 11.9842 9.35697 11.7311 9.96711C11.478 10.5772 11.0497 11.0986 10.5003 11.4653C9.9509 11.8321 9.3051 12.0276 8.64456 12.0273V12.0273ZM11.528 33.0933H5.76112V14.5629H11.528V33.0933ZM35.9709 0H2.87443C1.29032 0 0.00878906 1.25241 0.00878906 2.79769V36.0366C0.00878906 37.5835 1.29032 38.8343 2.87443 38.8343H35.9661C37.5486 38.8343 38.8431 37.5835 38.8431 36.0366V2.79769C38.8431 1.25241 37.5486 0 35.9661 0H35.9709Z" fill="#BE9F31"/>
</svg>
