<svg width="40" height="40" viewBox="0 0 40 40" fill="none" xmlns="http://www.w3.org/2000/svg">
<path d="M33.6477 33.7899H27.897V24.7788C27.897 22.6299 27.8533 19.8646 24.9003 19.8646C21.9019 19.8646 21.444 22.2027 21.444 24.6202V33.7899H15.6933V15.2595H21.2175V17.7854H21.2919C22.0637 16.3291 23.9407 14.7919 26.7449 14.7919C32.5716 14.7919 33.6493 18.6268 33.6493 23.6186V33.7899H33.6477ZM9.19827 12.724C8.75957 12.7242 8.32513 12.6379 7.91982 12.47C7.51452 12.3021 7.1463 12.0559 6.83624 11.7456C6.52618 11.4352 6.28037 11.0667 6.11288 10.6613C5.94539 10.2558 5.8595 9.82129 5.86014 9.38259C5.86046 8.72205 6.05665 8.07644 6.42389 7.5274C6.79113 6.97835 7.31294 6.55054 7.92332 6.29806C8.5337 6.04558 9.20524 5.97977 9.85303 6.10895C10.5008 6.23813 11.0957 6.55649 11.5626 7.02379C12.0294 7.49109 12.3472 8.08633 12.4758 8.73424C12.6043 9.38215 12.5379 10.0536 12.2848 10.6638C12.0317 11.2739 11.6034 11.7953 11.054 12.162C10.5046 12.5287 9.85881 12.7243 9.19827 12.724ZM12.0817 33.7899H6.31483V15.2595H12.0817V33.7899ZM36.5247 0.696655H3.42815C1.84403 0.696655 0.5625 1.94906 0.5625 3.49434V36.7332C0.5625 38.2801 1.84403 39.5309 3.42815 39.5309H36.5198C38.1023 39.5309 39.3968 38.2801 39.3968 36.7332V3.49434C39.3968 1.94906 38.1023 0.696655 36.5198 0.696655H36.5247Z" fill="#109D58"/>
</svg>
