<svg width="35" height="28" viewBox="0 0 35 28" fill="none" xmlns="http://www.w3.org/2000/svg">
<path d="M33.0384 14.0641C33.6918 14.0641 34.2222 14.5843 34.2222 15.2265C34.2222 15.8671 33.6918 16.3858 33.0384 16.3858H31.3864V21.9229C31.3864 25.2757 28.6067 28 25.1907 28H22.7127C22.0578 28 21.5273 27.4798 21.5273 26.8377C21.5273 26.197 22.0578 25.6768 22.7127 25.6768H25.1907C27.3016 25.6768 29.0189 23.9944 29.0189 21.9229V16.3858H24.9387V17.9279C24.9542 19.8575 23.3753 21.4348 21.4076 21.4531H12.8147C10.8484 21.4348 9.26955 19.8575 9.28511 17.9279V16.3858H5.20489V21.929C5.20489 23.9928 6.91756 25.6723 9.02222 25.6753L11.5547 25.6768C12.208 25.6768 12.7384 26.197 12.7384 26.8377C12.7369 27.4798 12.208 28 11.5531 28L9.01911 27.9985C5.61089 27.9954 2.83578 25.2726 2.83578 21.929V16.3858H1.18533C0.532 16.3858 0 15.8671 0 15.2265C0 14.5843 0.532 14.0641 1.18533 14.0641H33.0384ZM21.4083 5.82191C22.3494 5.82191 23.2532 6.19258 23.9112 6.85307C24.5739 7.51966 24.941 8.41506 24.9394 9.34706V11.2843C24.9317 11.5116 24.7466 11.6961 24.5148 11.7022H9.70589C9.47567 11.6946 9.29055 11.51 9.28575 11.2843V9.34706C9.26878 7.41746 10.8492 5.84174 12.8154 5.82191H21.4083ZM25.19 0.000457614C28.6076 0.000457614 31.3858 2.72478 31.3858 6.07604V8.96358C31.3858 9.60424 30.8569 10.1259 30.202 10.1259C29.5487 10.1259 29.0183 9.60424 29.0183 8.96358V6.07604C29.0183 4.0061 27.3009 2.32208 25.19 2.32208H22.712C22.0587 2.32208 21.5283 1.80346 21.5283 1.1628C21.5283 0.520612 22.0587 0.000457614 22.712 0.000457614H25.19ZM11.5542 0C12.2075 0 12.738 0.520154 12.738 1.16234C12.738 1.803 12.2091 2.32315 11.5542 2.32315L9.0202 2.32468C6.91709 2.32773 5.20598 4.00717 5.20598 6.07101V8.96312C5.20598 9.60378 4.67398 10.1255 4.02064 10.1255C3.36731 10.1255 2.83687 9.60378 2.83687 8.96312V6.07101C2.83687 2.72738 5.61042 0.00457614 9.01864 0.00152538L11.5542 0Z" fill="#9131BE"/>
</svg>
