<svg width="28" height="28" viewBox="0 0 28 28" fill="none" xmlns="http://www.w3.org/2000/svg">
<path d="M27.2095 0.814776C26.5092 0.0960373 25.4728 -0.171728 24.5064 0.11013L1.9712 6.66333C0.951578 6.9466 0.228882 7.75976 0.0342022 8.79277C-0.164679 9.8441 0.530005 11.1787 1.43758 11.7368L8.48386 16.0675C9.20656 16.5115 10.1393 16.4001 10.7374 15.7969L18.8061 7.67802C19.2123 7.25524 19.8845 7.25524 20.2907 7.67802C20.6969 8.08672 20.6969 8.74908 20.2907 9.17187L12.208 17.2922C11.6085 17.894 11.4965 18.8312 11.9377 19.5583L16.243 26.6753C16.7472 27.5208 17.6156 28 18.568 28C18.68 28 18.8061 28 18.9181 27.9859C20.0106 27.845 20.8789 27.0981 21.2011 26.0411L27.8818 3.53471C28.1759 2.57639 27.9098 1.53351 27.2095 0.814776Z" fill="#EAFFF7"/>
</svg>
