<svg width="25" height="27" viewBox="0 0 25 27" fill="none" xmlns="http://www.w3.org/2000/svg">
<path d="M11.0261 0.697684C12.5259 0.0609816 14.3833 0.547442 15.6234 2.0646C16.116 2.70968 16.4993 3.40301 16.8685 4.07139L17.2062 4.67841C18.3663 6.69032 22.7919 17.115 23.4401 19.3624L23.652 20.0502C23.8695 20.7429 24.0954 21.4593 24.2159 22.2752C24.444 24.2164 23.5737 25.9083 22.0452 26.5571C21.997 26.5776 21.9488 26.5981 21.8938 26.6196C21.0498 26.9779 19.9117 26.8491 19.1997 26.6177L12.3361 24.5427L9.73299 25.6478C7.72374 26.5008 5.63479 25.6701 4.41212 23.5317C3.14875 21.4107 1.56917 17.5223 0.947631 15.371C0.333766 13.1163 1.24725 10.9854 3.16304 10.1721L5.76617 9.06699L8.97051 2.79071C9.34897 2.01441 10.1883 1.04976 11.0261 0.697684Z" fill="#EAFFF7"/>
</svg>
