<svg width="25" height="27" viewBox="0 0 25 27" fill="none" xmlns="http://www.w3.org/2000/svg">
<path d="M11.0261 0.697806C12.5259 0.0611036 14.3833 0.547564 15.6234 2.06472C16.116 2.7098 16.4993 3.40313 16.8685 4.07151L17.2062 4.67854C18.3663 6.69044 22.7919 17.1151 23.4401 19.3626L23.652 20.0503C23.8695 20.743 24.0954 21.4594 24.2159 22.2753C24.444 24.2166 23.5737 25.9084 22.0452 26.5573C21.997 26.5777 21.9488 26.5982 21.8938 26.6197C21.0498 26.978 19.9117 26.8492 19.1997 26.6178L12.3361 24.5428L9.73299 25.6479C7.72374 26.5009 5.63479 25.6702 4.41212 23.5319C3.14875 21.4108 1.56917 17.5224 0.947631 15.3711C0.333766 13.1164 1.24725 10.9855 3.16304 10.1722L5.76617 9.06711L8.97051 2.79084C9.34897 2.01454 10.1883 1.04988 11.0261 0.697806Z" fill="#F5E0FF"/>
</svg>
