<svg width="28" height="22" viewBox="0 0 28 22" fill="none" xmlns="http://www.w3.org/2000/svg">
<path d="M14.3497 0C14.7965 0 15.1596 0.352672 15.1596 0.788021V4.09513C15.1596 4.62478 15.6117 5.064 16.1569 5.064C16.7154 5.064 17.1543 4.62478 17.1543 4.09513V0.788021C17.1543 0.352672 17.5173 0 17.9654 0H22.3005C25.1729 0 27.5 2.26072 27.5 5.05109V8.30652C27.5 8.56489 27.3936 8.81033 27.2074 8.99119C27.0213 9.17205 26.7686 9.2754 26.5027 9.2754C25.5186 9.2754 24.7207 10.0505 24.7207 10.9935C24.7207 11.943 25.5093 12.7143 26.484 12.7246C27.0332 12.7298 27.5 13.1018 27.5 13.6353V16.9489C27.5 19.738 25.1729 22 22.3005 22H17.9654C17.5173 22 17.1543 21.6473 17.1543 21.212V18.4216C17.1543 17.879 16.7154 17.4527 16.1569 17.4527C15.6117 17.4527 15.1596 17.879 15.1596 18.4216V21.212C15.1596 21.6473 14.7965 22 14.3497 22H5.19947C2.34043 22 0 19.7393 0 16.9489V13.6353C0 13.1018 0.466755 12.7298 1.01596 12.7246C1.99202 12.7143 2.77926 11.943 2.77926 10.9935C2.77926 10.0763 2.00798 9.37874 0.99734 9.37874C0.731383 9.37874 0.478723 9.2754 0.292553 9.09454C0.106383 8.91368 0 8.66823 0 8.40986V5.064C0 2.2788 2.34574 0 5.21277 0H14.3497ZM16.1569 7.84146C15.6117 7.84146 15.1596 8.28068 15.1596 8.81033V13.9777C15.1596 14.5073 15.6117 14.9466 16.1569 14.9466C16.7154 14.9466 17.1543 14.5073 17.1543 13.9777V8.81033C17.1543 8.28068 16.7154 7.84146 16.1569 7.84146Z" fill="#EAFFF7"/>
</svg>
