<svg width="54" height="45" viewBox="0 0 54 45" fill="none" xmlns="http://www.w3.org/2000/svg">
<path d="M53.2029 5.4822C51.2174 6.37496 49.1141 6.96426 46.9605 7.23113C49.2279 5.83932 50.9256 3.65664 51.7401 1.08617C49.6387 2.33863 47.3097 3.25033 44.8304 3.75809C43.1947 1.97176 41.0273 0.786979 38.6647 0.387726C36.302 -0.0115274 33.8764 0.397089 31.7645 1.55012C29.6526 2.70316 27.9726 4.53608 26.9853 6.76428C25.998 8.99247 25.7587 11.4912 26.3046 13.8726C17.267 13.437 9.25697 9.00489 3.89632 2.30478C2.9214 3.99688 2.41289 5.92683 2.42468 7.89009C2.42468 11.749 4.34709 15.1408 7.25943 17.1335C5.53337 17.0774 3.84543 16.6008 2.33629 15.7434V15.881C2.33531 18.4455 3.20307 20.9314 4.79235 22.9168C6.38163 24.9023 8.59454 26.2651 11.0556 26.7741C9.46092 27.2105 7.79067 27.276 6.16786 26.9659C6.86667 29.1728 8.22247 31.1019 10.0462 32.4842C11.8698 33.8665 14.0705 34.6331 16.3412 34.677C12.4952 37.7594 7.74658 39.4323 2.85777 39.4273C1.996 39.4273 1.13644 39.3754 0.272461 39.2761C5.25683 42.5355 11.0524 44.2657 16.9709 44.2612C36.9773 44.2612 47.9041 27.345 47.9041 12.6991C47.9041 12.2274 47.9041 11.7513 47.8709 11.2774C50.0054 9.70863 51.8466 7.76102 53.3067 5.52733L53.2029 5.4822Z" fill="#9131BE"/>
</svg>
