<svg width="19" height="15" viewBox="0 0 19 15" fill="none" xmlns="http://www.w3.org/2000/svg">
<path d="M18.1849 1.76391C17.5027 2.06423 16.7801 2.26248 16.0402 2.35225C16.8192 1.88404 17.4025 1.14978 17.6823 0.285068C16.9603 0.7064 16.1602 1.0131 15.3084 1.18391C14.7465 0.582983 14.0018 0.184419 13.1901 0.0501094C12.3784 -0.0842007 11.545 0.0532591 10.8195 0.441143C10.0939 0.829027 9.51669 1.44563 9.1775 2.1952C8.8383 2.94477 8.75609 3.78537 8.94363 4.58645C5.83868 4.43994 3.08673 2.94895 1.24502 0.695013C0.910073 1.26424 0.735369 1.91348 0.739419 2.57393C0.739419 3.87209 1.39989 5.0131 2.40046 5.68344C1.80745 5.66456 1.22754 5.50423 0.709053 5.2158V5.2621C0.708717 6.1248 1.00685 6.96105 1.55286 7.62897C2.09888 8.29689 2.85915 8.75535 3.70469 8.92656C3.1568 9.07336 2.58297 9.09542 2.02543 8.99109C2.26552 9.73349 2.73132 10.3825 3.35787 10.8475C3.98442 11.3125 4.74048 11.5704 5.52059 11.5851C4.19927 12.622 2.56782 13.1848 0.888214 13.1832C0.592143 13.1832 0.296831 13.1657 0 13.1323C1.71244 14.2288 3.70356 14.8108 5.73695 14.8093C12.6104 14.8093 16.3644 9.11862 16.3644 4.19169C16.3644 4.03303 16.3644 3.87285 16.353 3.71342C17.0863 3.18569 17.7189 2.53051 18.2205 1.77909L18.1849 1.76391Z" fill="#BE9F31"/>
</svg>
