<svg width="25" height="22" viewBox="0 0 25 22" fill="none" xmlns="http://www.w3.org/2000/svg">
<path d="M24.2641 3.3633C23.3565 3.77142 22.395 4.04082 21.4105 4.16282C22.447 3.52656 23.2231 2.52876 23.5954 1.35369C22.6348 1.92625 21.5701 2.34302 20.4367 2.57514C19.689 1.75853 18.6982 1.21692 17.6181 1.0344C16.538 0.851887 15.4292 1.03868 14.4638 1.56578C13.4983 2.09289 12.7303 2.93079 12.279 3.9494C11.8276 4.968 11.7182 6.1103 11.9678 7.1989C7.83633 6.9998 4.17459 4.97368 1.724 1.91077C1.27833 2.6843 1.04586 3.56656 1.05125 4.46405C1.05125 6.22814 1.93007 7.77868 3.26143 8.68961C2.47237 8.66396 1.70074 8.44608 1.01085 8.05412V8.11705C1.0104 9.28939 1.40709 10.4258 2.13362 11.3334C2.86015 12.2411 3.87176 12.8641 4.99684 13.0967C4.26782 13.2962 3.50428 13.3262 2.76242 13.1844C3.08188 14.1933 3.70167 15.0752 4.53536 15.7071C5.36905 16.339 6.37505 16.6894 7.41308 16.7095C5.65493 18.1186 3.48412 18.8834 1.24924 18.8811C0.855287 18.8811 0.462345 18.8573 0.0673828 18.812C2.34595 20.302 4.99534 21.0929 7.70097 21.0908C16.8467 21.0908 21.8418 13.3577 21.8418 6.66246C21.8418 6.44685 21.8418 6.22917 21.8267 6.01253C22.8025 5.29539 23.6441 4.40505 24.3116 3.38394L24.2641 3.3633Z" fill="#CDCDCD"/>
</svg>
