<svg width="18" height="18" viewBox="0 0 18 18" fill="none" xmlns="http://www.w3.org/2000/svg">
<path d="M9.06651 12.2176C9.2728 12.0119 9.54382 11.9083 9.81342 11.9083C10.0847 11.9083 10.354 12.0119 10.562 12.2176C10.7683 12.4233 10.8705 12.6935 10.8705 12.9623C10.8705 13.2326 10.7682 13.503 10.562 13.7087L7.54886 16.7112C7.12763 17.1312 6.63989 17.4492 6.11654 17.6633C5.57424 17.8877 4.99626 18 4.4198 18V17.9983C3.84347 17.9983 3.26532 17.8861 2.72474 17.6634C2.20115 17.4493 1.71364 17.1312 1.29076 16.7113C0.869529 16.2914 0.552367 15.8034 0.335876 15.2832C0.112566 14.7425 0 14.1679 0 13.5914C0 13.0168 0.110883 12.442 0.335876 11.8997C0.550677 11.3795 0.869661 10.8915 1.29076 10.4715L4.30378 7.46903C4.72501 7.04904 5.21275 6.73112 5.7361 6.51517C6.2784 6.29251 6.85638 6.18028 7.43284 6.18028V6.18195C8.00917 6.18195 8.58732 6.29251 9.1279 6.51516C9.65149 6.73101 10.139 7.04906 10.5602 7.46903C10.7665 7.67471 10.8704 7.94326 10.8704 8.21375C10.8704 8.48423 10.7664 8.75446 10.5619 8.96014C10.3538 9.16583 10.0846 9.26778 9.81331 9.26778C9.54397 9.26778 9.27269 9.1657 9.0664 8.96014C8.84477 8.73916 8.59078 8.57421 8.32118 8.46199C8.03804 8.34629 7.73633 8.28857 7.43283 8.28857C6.83947 8.28857 6.24588 8.5129 5.79758 8.96013L2.78625 11.9626C2.56629 12.182 2.39918 12.4352 2.28831 12.7057C2.17227 12.9863 2.11438 13.2888 2.11438 13.5914C2.11438 13.894 2.17227 14.1968 2.28831 14.4772C2.39919 14.7474 2.56629 15.0009 2.78625 15.2202C3.00788 15.4412 3.26188 15.6061 3.53148 15.7184C3.81629 15.8341 4.11801 15.8918 4.41982 15.8918C5.01318 15.8918 5.60509 15.6675 6.05507 15.2202L9.06651 12.2176ZM8.93345 5.78239C8.72716 5.98808 8.45783 6.09002 8.18655 6.09002C7.91526 6.09002 7.64593 5.98808 7.43964 5.78239C7.23335 5.5767 7.12943 5.30648 7.12943 5.03599C7.12943 4.76744 7.23335 4.49696 7.43964 4.29127L10.4511 1.28876C10.8723 0.868758 11.3601 0.550848 11.8834 0.334892C12.4257 0.112236 13.0037 0 13.5802 0C14.1565 0 14.733 0.11223 15.2769 0.334892C15.7988 0.550736 16.288 0.868791 16.7092 1.28876C17.1305 1.70875 17.4493 2.19506 17.6641 2.71689C17.8891 3.2576 18 3.83389 18 4.40866C18 4.98162 17.8891 5.55807 17.6641 6.09875C17.4493 6.6208 17.1303 7.10688 16.7092 7.52688L13.6962 10.5309C13.275 10.9509 12.7873 11.2688 12.2639 11.483C11.7216 11.7074 11.1436 11.8179 10.5688 11.8179C9.99069 11.8179 9.41271 11.7057 8.8721 11.483C8.34851 11.2689 7.861 10.9508 7.43977 10.5309C7.23348 10.3253 7.13123 10.055 7.13123 9.78454C7.13123 9.51405 7.23348 9.24551 7.43977 9.03982C7.64606 8.83413 7.9154 8.73052 8.18668 8.73052C8.45796 8.73052 8.72729 8.83413 8.93359 9.03982C9.15522 9.2608 9.40921 9.42576 9.6805 9.5363C9.96363 9.65367 10.2653 9.71139 10.5688 9.71139C11.1605 9.71139 11.7538 9.48706 12.2024 9.03983L15.2137 6.03732C15.4354 5.81633 15.6008 5.56309 15.7117 5.29428C15.8294 5.01197 15.8873 4.71114 15.8873 4.40854C15.8873 4.10593 15.8294 3.80483 15.7117 3.5228C15.6008 3.25232 15.4354 2.99907 15.2137 2.77808C14.9921 2.55876 14.7381 2.39214 14.4685 2.2816C14.1837 2.1659 13.882 2.1065 13.5802 2.1065V2.10818C12.9868 2.10818 12.3949 2.33083 11.9466 2.77806L8.93345 5.78239Z" fill="#BE9F31"/>
</svg>
